Interstate-Condensed_Light_Italic.ufo
<glyph name="exclam" format="1">
  <advance width="216"/>
  <unicode hex="0021"/>
  <outline>
    <contour>
      <point x="147" y="349" type="line"/>
      <point x="99" y="166" type="line"/>
      <point x="59" y="166" type="line"/>
      <point x="78" y="349" type="line"/>
      <point x="139" y="700" type="line"/>
      <point x="208" y="700" type="line"/>
    </contour>
    <contour>
      <point x="110" y="41" type="curve" smooth="yes"/>
      <point x="110" y="12"/>
      <point x="89" y="-11"/>
      <point x="59" y="-11" type="curve" smooth="yes"/>
      <point x="30" y="-11"/>
      <point x="8" y="12"/>
      <point x="8" y="41" type="curve" smooth="yes"/>
      <point x="8" y="70"/>
      <point x="30" y="94"/>
      <point x="59" y="94" type="curve" smooth="yes"/>
      <point x="89" y="94"/>
      <point x="110" y="70"/>
    </contour>
  </outline>
</glyph>
<glyph name="quotedbl" format="1">
  <advance width="329"/>
  <unicode hex="0022"/>
  <outline>
    <contour>
      <point x="342" y="700" type="line"/>
      <point x="273" y="403" type="line"/>
      <point x="225" y="403" type="line"/>
      <point x="260" y="700" type="line"/>
    </contour>
    <contour>
      <point x="183" y="700" type="line"/>
      <point x="114" y="403" type="line"/>
      <point x="66" y="403" type="line"/>
      <point x="101" y="700" type="line"/>
    </contour>
  </outline>
</glyph>
<glyph name="numbersign" format="1">
  <advance width="509"/>
  <unicode hex="0023"/>
  <outline>
    <contour>
      <point x="440" y="174" type="line"/>
      <point x="354" y="174" type="line"/>
      <point x="323" y="0" type="line"/>
      <point x="256" y="0" type="line"/>
      <point x="287" y="174" type="line"/>
      <point x="160" y="174" type="line"/>
      <point x="129" y="0" type="line"/>
      <point x="62" y="0" type="line"/>
      <point x="93" y="174" type="line"/>
      <point x="7" y="174" type="line"/>
      <point x="18" y="236" type="line"/>
      <point x="104" y="236" type="line"/>
      <point x="144" y="465" type="line"/>
      <point x="58" y="465" type="line"/>
      <point x="69" y="527" type="line"/>
      <point x="155" y="527" type="line"/>
      <point x="185" y="700" type="line"/>
      <point x="252" y="700" type="line"/>
      <point x="222" y="527" type="line"/>
      <point x="349" y="527" type="line"/>
      <point x="379" y="700" type="line"/>
      <point x="446" y="700" type="line"/>
      <point x="416" y="527" type="line"/>
      <point x="502" y="527" type="line"/>
      <point x="491" y="465" type="line"/>
      <point x="405" y="465" type="line"/>
      <point x="365" y="236" type="line"/>
      <point x="451" y="236" type="line"/>
    </contour>
    <contour>
      <point x="298" y="236" type="line"/>
      <point x="338" y="465" type="line"/>
      <point x="211" y="465" type="line"/>
      <point x="171" y="236" type="line"/>
    </contour>
  </outline>
</glyph>
<glyph name="dollar" format="1">
  <advance width="422"/>
  <unicode hex="0024"/>
  <outline>
    <contour>
      <point x="187" y="0" type="curve"/>
      <point x="174" y="-76" type="line"/>
      <point x="107" y="-76" type="line"/>
      <point x="120" y="0" type="line"/>
      <point x="56" y="15"/>
      <point x="22" y="64"/>
      <point x="10" y="136" type="curve"/>
      <point x="72" y="161" type="line"/>
      <point x="80" y="97"/>
      <point x="120" y="59"/>
      <point x="171" y="59" type="curve" smooth="yes"/>
      <point x="237" y="59"/>
      <point x="283" y="109"/>
      <point x="283" y="187" type="curve" smooth="yes"/>
      <point x="283" y="240"/>
      <point x="258" y="285"/>
      <point x="191" y="339" type="curve" smooth="yes"/>
      <point x="120" y="396"/>
      <point x="88" y="447"/>
      <point x="88" y="511" type="curve" smooth="yes"/>
      <point x="88" y="607"/>
      <point x="145" y="683"/>
      <point x="239" y="701" type="curve"/>
      <point x="253" y="779" type="line"/>
      <point x="320" y="779" type="line"/>
      <point x="306" y="701" type="line"/>
      <point x="367" y="690"/>
      <point x="400" y="651"/>
      <point x="418" y="589" type="curve"/>
      <point x="352" y="555" type="line"/>
      <point x="334" y="610"/>
      <point x="310" y="641"/>
      <point x="259" y="641" type="curve" smooth="yes"/>
      <point x="194" y="641"/>
      <point x="160" y="582"/>
      <point x="160" y="531" type="curve" smooth="yes"/>
      <point x="160" y="486"/>
      <point x="174" y="452"/>
      <point x="243" y="395" type="curve" smooth="yes"/>
      <point x="317" y="333"/>
      <point x="355" y="278"/>
      <point x="355" y="203" type="curve" smooth="yes"/>
      <point x="355" y="92"/>
      <point x="289" y="15"/>
    </contour>
  </outline>
</glyph>
<glyph name="percent" format="1">
  <advance width="757"/>
  <unicode hex="0025"/>
  <outline>
    <contour>
      <point x="161" y="275" type="curve" smooth="yes"/>
      <point x="94" y="275"/>
      <point x="56" y="331"/>
      <point x="56" y="436" type="curve" smooth="yes"/>
      <point x="56" y="601"/>
      <point x="118" y="711"/>
      <point x="207" y="711" type="curve" smooth="yes"/>
      <point x="277" y="711"/>
      <point x="313" y="653"/>
      <point x="313" y="548" type="curve" smooth="yes"/>
      <point x="313" y="384"/>
      <point x="248" y="275"/>
    </contour>
    <contour>
      <point x="632" y="700" type="line"/>
      <point x="189" y="0" type="line"/>
      <point x="125" y="0" type="line"/>
      <point x="567" y="700" type="line"/>
    </contour>
    <contour>
      <point x="549" y="-11" type="curve" smooth="yes"/>
      <point x="482" y="-11"/>
      <point x="444" y="45"/>
      <point x="444" y="150" type="curve" smooth="yes"/>
      <point x="444" y="315"/>
      <point x="506" y="425"/>
      <point x="595" y="425" type="curve" smooth="yes"/>
      <point x="665" y="425"/>
      <point x="701" y="367"/>
      <point x="701" y="262" type="curve" smooth="yes"/>
      <point x="701" y="98"/>
      <point x="636" y="-11"/>
    </contour>
    <contour>
      <point x="251" y="545" type="curve" smooth="yes"/>
      <point x="251" y="616"/>
      <point x="234" y="653"/>
      <point x="199" y="653" type="curve" smooth="yes"/>
      <point x="152" y="653"/>
      <point x="118" y="562"/>
      <point x="118" y="439" type="curve" smooth="yes"/>
      <point x="118" y="369"/>
      <point x="135" y="333"/>
      <point x="169" y="333" type="curve" smooth="yes"/>
      <point x="217" y="333"/>
      <point x="251" y="426"/>
    </contour>
    <contour>
      <point x="639" y="259" type="curve" smooth="yes"/>
      <point x="639" y="330"/>
      <point x="622" y="367"/>
      <point x="587" y="367" type="curve" smooth="yes"/>
      <point x="540" y="367"/>
      <point x="506" y="276"/>
      <point x="506" y="153" type="curve" smooth="yes"/>
      <point x="506" y="83"/>
      <point x="523" y="47"/>
      <point x="557" y="47" type="curve" smooth="yes"/>
      <point x="605" y="47"/>
      <point x="639" y="140"/>
    </contour>
  </outline>
</glyph>
<glyph name="ampersand" format="1">
  <advance width="462"/>
  <unicode hex="0026"/>
  <outline>
    <contour>
      <point x="330" y="139" type="curve"/>
      <point x="378" y="0" type="line"/>
      <point x="303" y="0" type="line"/>
      <point x="279" y="67" type="line"/>
      <point x="246" y="26"/>
      <point x="201" y="-11"/>
      <point x="135" y="-11" type="curve" smooth="yes"/>
      <point x="53" y="-11"/>
      <point x="11" y="50"/>
      <point x="11" y="129" type="curve" smooth="yes"/>
      <point x="11" y="219"/>
      <point x="61" y="313"/>
      <point x="164" y="387" type="curve"/>
      <point x="164" y="387"/>
      <point x="151" y="425"/>
      <point x="144" y="449" type="curve" smooth="yes"/>
      <point x="133" y="486"/>
      <point x="126" y="518"/>
      <point x="126" y="542" type="curve" smooth="yes"/>
      <point x="126" y="633"/>
      <point x="187" y="711"/>
      <point x="287" y="711" type="curve" smooth="yes"/>
      <point x="357" y="711"/>
      <point x="397" y="666"/>
      <point x="416" y="610" type="curve"/>
      <point x="356" y="569" type="line"/>
      <point x="339" y="621"/>
      <point x="318" y="646"/>
      <point x="278" y="646" type="curve" smooth="yes"/>
      <point x="223" y="646"/>
      <point x="199" y="602"/>
      <point x="199" y="551" type="curve" smooth="yes"/>
      <point x="199" y="527"/>
      <point x="204" y="503"/>
      <point x="213" y="477" type="curve" smooth="yes"/>
      <point x="303" y="215" type="line"/>
      <point x="327" y="262"/>
      <point x="348" y="312"/>
      <point x="364" y="356" type="curve"/>
      <point x="422" y="338" type="line"/>
      <point x="398" y="279"/>
      <point x="369" y="208"/>
    </contour>
    <contour>
      <point x="256" y="134" type="curve"/>
      <point x="187" y="330" type="line"/>
      <point x="117" y="274"/>
      <point x="80" y="194"/>
      <point x="80" y="133" type="curve" smooth="yes"/>
      <point x="80" y="83"/>
      <point x="107" y="51"/>
      <point x="144" y="51" type="curve" smooth="yes"/>
      <point x="187" y="51"/>
      <point x="223" y="86"/>
    </contour>
  </outline>
</glyph>
<glyph name="parenleft" format="1">
  <advance width="272"/>
  <unicode hex="0028"/>
  <outline>
    <contour>
      <point x="163" y="-85" type="curve"/>
      <point x="124" y="-110" type="line"/>
      <point x="71" y="-24"/>
      <point x="38" y="71"/>
      <point x="38" y="191" type="curve" smooth="yes"/>
      <point x="39" y="400"/>
      <point x="138" y="580"/>
      <point x="269" y="715" type="curve"/>
      <point x="302" y="686" type="line"/>
      <point x="180" y="552"/>
      <point x="107" y="362"/>
      <point x="106" y="161" type="curve" smooth="yes"/>
      <point x="106" y="66"/>
      <point x="125" y="-17"/>
    </contour>
  </outline>
</glyph>
<glyph name="parenright" format="1">
  <advance width="272"/>
  <unicode hex="0029"/>
  <outline>
    <contour>
      <point x="95" y="690" type="curve"/>
      <point x="134" y="715" type="line"/>
      <point x="187" y="629"/>
      <point x="220" y="534"/>
      <point x="220" y="414" type="curve" smooth="yes"/>
      <point x="220" y="206"/>
      <point x="120" y="25"/>
      <point x="-11" y="-110" type="curve"/>
      <point x="-44" y="-81" type="line"/>
      <point x="78" y="53"/>
      <point x="152" y="243"/>
      <point x="152" y="444" type="curve" smooth="yes"/>
      <point x="152" y="539"/>
      <point x="133" y="622"/>
    </contour>
  </outline>
</glyph>
<glyph name="asterisk" format="1">
  <advance width="388"/>
  <unicode hex="002A"/>
  <outline>
    <contour>
      <point x="361" y="497" type="line"/>
      <point x="329" y="444" type="line"/>
      <point x="227" y="521" type="line"/>
      <point x="243" y="393" type="line"/>
      <point x="181" y="393" type="line"/>
      <point x="196" y="521" type="line"/>
      <point x="94" y="443" type="line"/>
      <point x="61" y="497" type="line"/>
      <point x="177" y="546" type="line"/>
      <point x="62" y="597" type="line"/>
      <point x="94" y="650" type="line"/>
      <point x="196" y="571" type="line"/>
      <point x="181" y="699" type="line"/>
      <point x="243" y="699" type="line"/>
      <point x="227" y="572" type="line"/>
      <point x="328" y="650" type="line"/>
      <point x="361" y="597" type="line"/>
      <point x="245" y="546" type="line"/>
    </contour>
  </outline>
</glyph>
<glyph name="plus" format="1">
  <advance width="417"/>
  <unicode hex="002B"/>
  <outline>
    <contour>
      <point x="382" y="314" type="line"/>
      <point x="239" y="314" type="line"/>
      <point x="239" y="157" type="line"/>
      <point x="178" y="157" type="line"/>
      <point x="178" y="314" type="line"/>
      <point x="35" y="314" type="line"/>
      <point x="35" y="374" type="line"/>
      <point x="178" y="374" type="line"/>
      <point x="178" y="531" type="line"/>
      <point x="239" y="531" type="line"/>
      <point x="239" y="374" type="line"/>
      <point x="382" y="374" type="line"/>
    </contour>
  </outline>
</glyph>
<glyph name="comma" format="1">
  <advance width="183"/>
  <unicode hex="002C"/>
  <outline>
    <contour>
      <point x="103" y="88" type="line"/>
      <point x="17" y="-103" type="line"/>
      <point x="-26" y="-103" type="line"/>
      <point x="20" y="88" type="line"/>
    </contour>
  </outline>
</glyph>
<glyph name="hyphen" format="1">
  <advance width="267"/>
  <unicode hex="002D"/>
  <unicode hex="2010"/>
  <unicode hex="2011"/>
  <outline>
    <contour>
      <point x="228" y="332" type="line"/>
      <point x="41" y="332" type="line"/>
      <point x="53" y="400" type="line"/>
      <point x="240" y="400" type="line"/>
    </contour>
  </outline>
</glyph>
<glyph name="period" format="1">
  <advance width="183"/>
  <unicode hex="002E"/>
  <outline>
    <contour>
      <point x="100" y="41" type="curve" smooth="yes"/>
      <point x="100" y="12"/>
      <point x="79" y="-11"/>
      <point x="49" y="-11" type="curve" smooth="yes"/>
      <point x="20" y="-11"/>
      <point x="-2" y="12"/>
      <point x="-2" y="41" type="curve" smooth="yes"/>
      <point x="-2" y="70"/>
      <point x="20" y="94"/>
      <point x="49" y="94" type="curve" smooth="yes"/>
      <point x="79" y="94"/>
      <point x="100" y="70"/>
    </contour>
  </outline>
</glyph>
<glyph name="slash" format="1">
  <advance width="303"/>
  <unicode hex="002F"/>
  <outline>
    <contour>
      <point x="374" y="790" type="line"/>
      <point x="-7" y="-90" type="line"/>
      <point x="-71" y="-90" type="line"/>
      <point x="310" y="790" type="line"/>
    </contour>
  </outline>
</glyph>
<glyph name="zero" format="1">
  <advance width="467"/>
  <unicode hex="0030"/>
  <outline>
    <contour>
      <point x="181" y="-11" type="curve" smooth="yes"/>
      <point x="83" y="-11"/>
      <point x="35" y="64"/>
      <point x="35" y="213" type="curve" smooth="yes"/>
      <point x="35" y="440"/>
      <point x="112" y="711"/>
      <point x="286" y="711" type="curve" smooth="yes"/>
      <point x="382" y="711"/>
      <point x="432" y="639"/>
      <point x="432" y="492" type="curve" smooth="yes"/>
      <point x="432" y="249"/>
      <point x="355" y="-11"/>
    </contour>
    <contour>
      <point x="363" y="479" type="curve" smooth="yes"/>
      <point x="363" y="593"/>
      <point x="336" y="646"/>
      <point x="277" y="646" type="curve" smooth="yes"/>
      <point x="160" y="646"/>
      <point x="104" y="400"/>
      <point x="104" y="218" type="curve" smooth="yes"/>
      <point x="104" y="106"/>
      <point x="133" y="54"/>
      <point x="191" y="54" type="curve" smooth="yes"/>
      <point x="308" y="54"/>
      <point x="363" y="291"/>
    </contour>
  </outline>
</glyph>
<glyph name="one" format="1">
  <advance width="249"/>
  <unicode hex="0031"/>
  <outline>
    <contour>
      <point x="111" y="0" type="line"/>
      <point x="43" y="0" type="line"/>
      <point x="145" y="577" type="line"/>
      <point x="49" y="577" type="line"/>
      <point x="57" y="623" type="line"/>
      <point x="122" y="628"/>
      <point x="159" y="644"/>
      <point x="180" y="700" type="curve"/>
      <point x="234" y="700" type="line"/>
    </contour>
  </outline>
</glyph>
<glyph name="two" format="1">
  <advance width="403"/>
  <unicode hex="0032"/>
  <outline>
    <contour>
      <point x="310" y="0" type="line"/>
      <point x="-18" y="0" type="line"/>
      <point x="16" y="197"/>
      <point x="92" y="278"/>
      <point x="208" y="372" type="curve" smooth="yes"/>
      <point x="308" y="453"/>
      <point x="334" y="506"/>
      <point x="334" y="567" type="curve" smooth="yes"/>
      <point x="334" y="617"/>
      <point x="310" y="646"/>
      <point x="260" y="646" type="curve" smooth="yes"/>
      <point x="210" y="646"/>
      <point x="170" y="612"/>
      <point x="139" y="554" type="curve"/>
      <point x="84" y="584" type="line"/>
      <point x="122" y="651"/>
      <point x="179" y="711"/>
      <point x="270" y="711" type="curve" smooth="yes"/>
      <point x="354" y="711"/>
      <point x="406" y="661"/>
      <point x="406" y="577" type="curve" smooth="yes"/>
      <point x="405" y="470"/>
      <point x="356" y="413"/>
      <point x="245" y="322" type="curve" smooth="yes"/>
      <point x="128" y="226"/>
      <point x="89" y="152"/>
      <point x="69" y="66" type="curve"/>
      <point x="322" y="66" type="line"/>
    </contour>
  </outline>
</glyph>
<glyph name="three" format="1">
  <advance width="388"/>
  <unicode hex="0033"/>
  <outline>
    <contour>
      <point x="129" y="-11" type="curve" smooth="yes"/>
      <point x="52" y="-11"/>
      <point x="-9" y="37"/>
      <point x="-26" y="121" type="curve"/>
      <point x="40" y="152" type="line"/>
      <point x="54" y="83"/>
      <point x="88" y="54"/>
      <point x="135" y="54" type="curve" smooth="yes"/>
      <point x="218" y="54"/>
      <point x="262" y="145"/>
      <point x="262" y="244" type="curve" smooth="yes"/>
      <point x="262" y="310"/>
      <point x="227" y="340"/>
      <point x="162" y="340" type="curve" smooth="yes"/>
      <point x="135" y="340" type="line"/>
      <point x="146" y="404" type="line"/>
      <point x="179" y="404" type="line" smooth="yes"/>
      <point x="255" y="404"/>
      <point x="306" y="464"/>
      <point x="306" y="562" type="curve" smooth="yes"/>
      <point x="306" y="613"/>
      <point x="283" y="646"/>
      <point x="235" y="646" type="curve" smooth="yes"/>
      <point x="189" y="646"/>
      <point x="153" y="616"/>
      <point x="119" y="559" type="curve"/>
      <point x="67" y="589" type="line"/>
      <point x="107" y="662"/>
      <point x="161" y="711"/>
      <point x="242" y="711" type="curve" smooth="yes"/>
      <point x="325" y="711"/>
      <point x="378" y="655"/>
      <point x="378" y="575" type="curve" smooth="yes"/>
      <point x="378" y="461"/>
      <point x="325" y="405"/>
      <point x="261" y="375" type="curve"/>
      <point x="299" y="365"/>
      <point x="337" y="330"/>
      <point x="337" y="246" type="curve" smooth="yes"/>
      <point x="337" y="100"/>
      <point x="256" y="-11"/>
    </contour>
  </outline>
</glyph>
<glyph name="four" format="1">
  <advance width="441"/>
  <unicode hex="0034"/>
  <outline>
    <contour>
      <point x="390" y="184" type="line"/>
      <point x="325" y="184" type="line"/>
      <point x="293" y="0" type="line"/>
      <point x="229" y="0" type="line"/>
      <point x="261" y="184" type="line"/>
      <point x="3" y="184" type="line"/>
      <point x="13" y="237" type="line"/>
      <point x="353" y="700" type="line"/>
      <point x="416" y="700" type="line"/>
      <point x="336" y="244" type="line"/>
      <point x="401" y="244" type="line"/>
    </contour>
    <contour>
      <point x="336" y="587" type="curve"/>
      <point x="317" y="559"/>
      <point x="280" y="509"/>
      <point x="252" y="471" type="curve" smooth="yes"/>
      <point x="158" y="345" type="line" smooth="yes"/>
      <point x="131" y="308"/>
      <point x="102" y="270"/>
      <point x="82" y="244" type="curve"/>
      <point x="83" y="244"/>
      <point x="95" y="244"/>
      <point x="112" y="244" type="curve" smooth="yes"/>
      <point x="166" y="244"/>
      <point x="272" y="244"/>
      <point x="272" y="244" type="curve"/>
      <point x="320" y="508" type="line" smooth="yes"/>
      <point x="324" y="529"/>
      <point x="332" y="569"/>
    </contour>
  </outline>
</glyph>
<glyph name="five" format="1">
  <advance width="420"/>
  <unicode hex="0035"/>
  <outline>
    <contour>
      <point x="149" y="-11" type="curve" smooth="yes"/>
      <point x="64" y="-11"/>
      <point x="17" y="45"/>
      <point x="0" y="109" type="curve"/>
      <point x="63" y="143" type="line"/>
      <point x="75" y="95"/>
      <point x="101" y="54"/>
      <point x="156" y="54" type="curve" smooth="yes"/>
      <point x="248" y="54"/>
      <point x="300" y="167"/>
      <point x="300" y="280" type="curve" smooth="yes"/>
      <point x="300" y="340"/>
      <point x="276" y="386"/>
      <point x="220" y="386" type="curve" smooth="yes"/>
      <point x="173" y="386"/>
      <point x="142" y="364"/>
      <point x="110" y="328" type="curve"/>
      <point x="52" y="345" type="line"/>
      <point x="131" y="700" type="line"/>
      <point x="425" y="700" type="line"/>
      <point x="413" y="632" type="line"/>
      <point x="182" y="632" type="line"/>
      <point x="129" y="410" type="line"/>
      <point x="159" y="437"/>
      <point x="191" y="451"/>
      <point x="236" y="451" type="curve" smooth="yes"/>
      <point x="323" y="451"/>
      <point x="374" y="394"/>
      <point x="374" y="301" type="curve" smooth="yes"/>
      <point x="374" y="131"/>
      <point x="290" y="-11"/>
    </contour>
  </outline>
</glyph>
<glyph name="six" format="1">
  <advance width="439"/>
  <unicode hex="0036"/>
  <outline>
    <contour>
      <point x="188" y="-11" type="curve" smooth="yes"/>
      <point x="101" y="-11"/>
      <point x="35" y="60"/>
      <point x="35" y="192" type="curve" smooth="yes"/>
      <point x="35" y="473"/>
      <point x="210" y="657"/>
      <point x="378" y="711" type="curve"/>
      <point x="392" y="653" type="line"/>
      <point x="258" y="607"/>
      <point x="160" y="485"/>
      <point x="124" y="354" type="curve"/>
      <point x="152" y="389"/>
      <point x="200" y="423"/>
      <point x="256" y="423" type="curve" smooth="yes"/>
      <point x="339" y="423"/>
      <point x="403" y="354"/>
      <point x="403" y="253" type="curve" smooth="yes"/>
      <point x="403" y="106"/>
      <point x="308" y="-11"/>
    </contour>
    <contour>
      <point x="331" y="239" type="curve" smooth="yes"/>
      <point x="331" y="311"/>
      <point x="301" y="358"/>
      <point x="238" y="358" type="curve" smooth="yes"/>
      <point x="151" y="358"/>
      <point x="103" y="268"/>
      <point x="103" y="173" type="curve" smooth="yes"/>
      <point x="103" y="101"/>
      <point x="138" y="54"/>
      <point x="195" y="54" type="curve" smooth="yes"/>
      <point x="276" y="54"/>
      <point x="331" y="140"/>
    </contour>
  </outline>
</glyph>
<glyph name="seven" format="1">
  <advance width="407"/>
  <unicode hex="0037"/>
  <outline>
    <contour>
      <point x="420" y="636" type="line"/>
      <point x="269" y="460"/>
      <point x="190" y="270"/>
      <point x="140" y="0" type="curve"/>
      <point x="70" y="0" type="line"/>
      <point x="119" y="258"/>
      <point x="202" y="464"/>
      <point x="346" y="634" type="curve"/>
      <point x="83" y="634" type="line"/>
      <point x="94" y="700" type="line"/>
      <point x="431" y="700" type="line"/>
    </contour>
  </outline>
</glyph>
<glyph name="eight" format="1">
  <advance width="448"/>
  <unicode hex="0038"/>
  <outline>
    <contour>
      <point x="179" y="-10" type="curve" smooth="yes"/>
      <point x="85" y="-10"/>
      <point x="25" y="59"/>
      <point x="25" y="167" type="curve" smooth="yes"/>
      <point x="25" y="267"/>
      <point x="77" y="346"/>
      <point x="148" y="381" type="curve"/>
      <point x="114" y="405"/>
      <point x="91" y="449"/>
      <point x="91" y="505" type="curve" smooth="yes"/>
      <point x="91" y="606"/>
      <point x="169" y="710"/>
      <point x="280" y="710" type="curve" smooth="yes"/>
      <point x="375" y="710"/>
      <point x="426" y="636"/>
      <point x="426" y="555" type="curve" smooth="yes"/>
      <point x="426" y="471"/>
      <point x="379" y="412"/>
      <point x="322" y="380" type="curve"/>
      <point x="367" y="354"/>
      <point x="392" y="307"/>
      <point x="392" y="240" type="curve" smooth="yes"/>
      <point x="392" y="99"/>
      <point x="298" y="-10"/>
    </contour>
    <contour>
      <point x="357" y="552" type="curve" smooth="yes"/>
      <point x="357" y="601"/>
      <point x="332" y="645"/>
      <point x="275" y="645" type="curve" smooth="yes"/>
      <point x="202" y="645"/>
      <point x="162" y="576"/>
      <point x="161" y="510" type="curve" smooth="yes"/>
      <point x="160" y="456"/>
      <point x="188" y="412"/>
      <point x="241" y="412" type="curve" smooth="yes"/>
      <point x="307" y="412"/>
      <point x="357" y="479"/>
    </contour>
    <contour>
      <point x="321" y="233" type="curve" smooth="yes"/>
      <point x="321" y="297"/>
      <point x="291" y="347"/>
      <point x="230" y="347" type="curve" smooth="yes"/>
      <point x="149" y="347"/>
      <point x="94" y="261"/>
      <point x="94" y="174" type="curve" smooth="yes"/>
      <point x="94" y="105"/>
      <point x="125" y="55"/>
      <point x="188" y="55" type="curve" smooth="yes"/>
      <point x="269" y="55"/>
      <point x="321" y="143"/>
    </contour>
  </outline>
</glyph>
<glyph name="nine" format="1">
  <advance width="439"/>
  <unicode hex="0039"/>
  <outline>
    <contour>
      <point x="263" y="711" type="curve" smooth="yes"/>
      <point x="350" y="711"/>
      <point x="417" y="651"/>
      <point x="417" y="526" type="curve" smooth="yes"/>
      <point x="417" y="297"/>
      <point x="284" y="64"/>
      <point x="57" y="-11" type="curve"/>
      <point x="45" y="47" type="line"/>
      <point x="174" y="91"/>
      <point x="276" y="195"/>
      <point x="319" y="339" type="curve"/>
      <point x="284" y="298"/>
      <point x="248" y="277"/>
      <point x="198" y="277" type="curve" smooth="yes"/>
      <point x="111" y="277"/>
      <point x="50" y="344"/>
      <point x="50" y="448" type="curve" smooth="yes"/>
      <point x="50" y="599"/>
      <point x="142" y="711"/>
    </contour>
    <contour>
      <point x="121" y="461" type="curve" smooth="yes"/>
      <point x="121" y="388"/>
      <point x="149" y="340"/>
      <point x="212" y="340" type="curve" smooth="yes"/>
      <point x="299" y="340"/>
      <point x="349" y="432"/>
      <point x="349" y="527" type="curve" smooth="yes"/>
      <point x="349" y="599"/>
      <point x="314" y="646"/>
      <point x="257" y="646" type="curve" smooth="yes"/>
      <point x="176" y="646"/>
      <point x="121" y="560"/>
    </contour>
  </outline>
</glyph>
<glyph name="colon" format="1">
  <advance width="183"/>
  <unicode hex="003A"/>
  <outline>
    <contour>
      <point x="175" y="483" type="curve" smooth="yes"/>
      <point x="175" y="454"/>
      <point x="154" y="431"/>
      <point x="124" y="431" type="curve" smooth="yes"/>
      <point x="95" y="431"/>
      <point x="73" y="454"/>
      <point x="73" y="483" type="curve" smooth="yes"/>
      <point x="73" y="512"/>
      <point x="95" y="536"/>
      <point x="124" y="536" type="curve" smooth="yes"/>
      <point x="154" y="536"/>
      <point x="175" y="512"/>
    </contour>
    <contour>
      <point x="100" y="41" type="curve" smooth="yes"/>
      <point x="100" y="12"/>
      <point x="79" y="-11"/>
      <point x="49" y="-11" type="curve" smooth="yes"/>
      <point x="20" y="-11"/>
      <point x="-2" y="12"/>
      <point x="-2" y="41" type="curve" smooth="yes"/>
      <point x="-2" y="70"/>
      <point x="20" y="94"/>
      <point x="49" y="94" type="curve" smooth="yes"/>
      <point x="79" y="94"/>
      <point x="100" y="70"/>
    </contour>
  </outline>
</glyph>
<glyph name="semicolon" format="1">
  <advance width="183"/>
  <unicode hex="003B"/>
  <outline>
    <contour>
      <point x="175" y="483" type="curve" smooth="yes"/>
      <point x="175" y="454"/>
      <point x="154" y="431"/>
      <point x="124" y="431" type="curve" smooth="yes"/>
      <point x="95" y="431"/>
      <point x="73" y="454"/>
      <point x="73" y="483" type="curve" smooth="yes"/>
      <point x="73" y="512"/>
      <point x="95" y="536"/>
      <point x="124" y="536" type="curve" smooth="yes"/>
      <point x="154" y="536"/>
      <point x="175" y="512"/>
    </contour>
    <contour>
      <point x="103" y="88" type="line"/>
      <point x="17" y="-103" type="line"/>
      <point x="-26" y="-103" type="line"/>
      <point x="20" y="88" type="line"/>
    </contour>
  </outline>
</glyph>
<glyph name="equal" format="1">
  <advance width="439"/>
  <unicode hex="003D"/>
  <outline>
    <contour>
      <point x="381" y="405" type="line"/>
      <point x="58" y="405" type="line"/>
      <point x="58" y="469" type="line"/>
      <point x="381" y="469" type="line"/>
    </contour>
    <contour>
      <point x="381" y="219" type="line"/>
      <point x="58" y="219" type="line"/>
      <point x="58" y="283" type="line"/>
      <point x="381" y="283" type="line"/>
    </contour>
  </outline>
</glyph>
<glyph name="greater" format="1">
  <advance width="301"/>
  <unicode hex="003E"/>
  <outline>
    <contour>
      <point x="264" y="317" type="line"/>
      <point x="45" y="98" type="line"/>
      <point x="45" y="186" type="line"/>
      <point x="211" y="343" type="line"/>
      <point x="45" y="501" type="line"/>
      <point x="45" y="590" type="line"/>
      <point x="264" y="371" type="line"/>
    </contour>
  </outline>
</glyph>
<glyph name="question" format="1">
  <advance width="379"/>
  <unicode hex="003F"/>
  <outline>
    <contour>
      <point x="258" y="363" type="curve" smooth="yes"/>
      <point x="203" y="319"/>
      <point x="184" y="277"/>
      <point x="168" y="175" type="curve"/>
      <point x="102" y="175" type="line"/>
      <point x="120" y="298"/>
      <point x="143" y="346"/>
      <point x="228" y="413" type="curve" smooth="yes"/>
      <point x="281" y="455"/>
      <point x="309" y="505"/>
      <point x="309" y="564" type="curve" smooth="yes"/>
      <point x="309" y="613"/>
      <point x="285" y="646"/>
      <point x="236" y="646" type="curve" smooth="yes"/>
      <point x="187" y="646"/>
      <point x="151" y="617"/>
      <point x="114" y="551" type="curve"/>
      <point x="59" y="578" type="line"/>
      <point x="101" y="658"/>
      <point x="160" y="711"/>
      <point x="249" y="711" type="curve" smooth="yes"/>
      <point x="335" y="711"/>
      <point x="383" y="659"/>
      <point x="383" y="578" type="curve" smooth="yes"/>
      <point x="383" y="496"/>
      <point x="332" y="422"/>
    </contour>
    <contour>
      <point x="171" y="41" type="curve" smooth="yes"/>
      <point x="171" y="12"/>
      <point x="150" y="-11"/>
      <point x="120" y="-11" type="curve" smooth="yes"/>
      <point x="91" y="-11"/>
      <point x="69" y="12"/>
      <point x="69" y="41" type="curve" smooth="yes"/>
      <point x="69" y="70"/>
      <point x="91" y="94"/>
      <point x="120" y="94" type="curve" smooth="yes"/>
      <point x="150" y="94"/>
      <point x="171" y="70"/>
    </contour>
  </outline>
</glyph>
<glyph name="at" format="1">
  <advance width="617"/>
  <unicode hex="0040"/>
  <outline>
    <contour>
      <point x="573" y="360" type="curve" smooth="yes"/>
      <point x="573" y="203"/>
      <point x="530" y="153"/>
      <point x="462" y="153" type="curve" smooth="yes"/>
      <point x="424" y="153"/>
      <point x="399" y="171"/>
      <point x="385" y="198" type="curve"/>
      <point x="359" y="170"/>
      <point x="331" y="152"/>
      <point x="290" y="152" type="curve" smooth="yes"/>
      <point x="226" y="152"/>
      <point x="186" y="197"/>
      <point x="186" y="285" type="curve" smooth="yes"/>
      <point x="186" y="372"/>
      <point x="233" y="415"/>
      <point x="301" y="415" type="curve" smooth="yes"/>
      <point x="332" y="415"/>
      <point x="350" y="407"/>
      <point x="366" y="397" type="curve"/>
      <point x="366" y="459" type="line" smooth="yes"/>
      <point x="366" y="497"/>
      <point x="350" y="515"/>
      <point x="306" y="515" type="curve" smooth="yes"/>
      <point x="283" y="515"/>
      <point x="260" y="506"/>
      <point x="235" y="487" type="curve"/>
      <point x="211" y="523" type="line"/>
      <point x="241" y="548"/>
      <point x="275" y="563"/>
      <point x="313" y="563" type="curve" smooth="yes"/>
      <point x="376" y="563"/>
      <point x="413" y="539"/>
      <point x="413" y="462" type="curve" smooth="yes"/>
      <point x="413" y="262" type="line" smooth="yes"/>
      <point x="413" y="223"/>
      <point x="428" y="198"/>
      <point x="464" y="198" type="curve" smooth="yes"/>
      <point x="503" y="198"/>
      <point x="525" y="239"/>
      <point x="525" y="360" type="curve" smooth="yes"/>
      <point x="525" y="552"/>
      <point x="438" y="666"/>
      <point x="309" y="666" type="curve" smooth="yes"/>
      <point x="174" y="666"/>
      <point x="92" y="546"/>
      <point x="92" y="351" type="curve" smooth="yes"/>
      <point x="92" y="156"/>
      <point x="174" y="34"/>
      <point x="311" y="34" type="curve" smooth="yes"/>
      <point x="348" y="34"/>
      <point x="381" y="45"/>
      <point x="410" y="64" type="curve"/>
      <point x="429" y="25" type="line"/>
      <point x="390" y="1"/>
      <point x="353" y="-11"/>
      <point x="309" y="-11" type="curve" smooth="yes"/>
      <point x="150" y="-11"/>
      <point x="45" y="130"/>
      <point x="45" y="350" type="curve" smooth="yes"/>
      <point x="45" y="570"/>
      <point x="150" y="711"/>
      <point x="309" y="711" type="curve" smooth="yes"/>
      <point x="470" y="711"/>
      <point x="573" y="561"/>
    </contour>
    <contour>
      <point x="366" y="235" type="curve"/>
      <point x="366" y="351" type="line"/>
      <point x="350" y="362"/>
      <point x="330" y="370"/>
      <point x="299" y="370" type="curve" smooth="yes"/>
      <point x="258" y="370"/>
      <point x="237" y="337"/>
      <point x="237" y="286" type="curve" smooth="yes"/>
      <point x="237" y="231"/>
      <point x="255" y="198"/>
      <point x="297" y="198" type="curve" smooth="yes"/>
      <point x="324" y="198"/>
      <point x="350" y="213"/>
    </contour>
  </outline>
</glyph>
<glyph name="A" format="1">
  <advance width="462"/>
  <unicode hex="0041"/>
  <outline>
    <contour>
      <point x="377" y="0" type="line"/>
      <point x="306" y="0" type="line"/>
      <point x="297" y="182" type="line"/>
      <point x="114" y="182" type="line"/>
      <point x="40" y="0" type="line"/>
      <point x="-29" y="0" type="line"/>
      <point x="260" y="700" type="line"/>
      <point x="334" y="700" type="line"/>
    </contour>
    <contour>
      <point x="294" y="247" type="line"/>
      <point x="285" y="422" type="line" smooth="yes"/>
      <point x="282" y="488"/>
      <point x="280" y="568"/>
      <point x="281" y="620" type="curve"/>
      <point x="266" y="569"/>
      <point x="235" y="486"/>
      <point x="209" y="421" type="curve" smooth="yes"/>
      <point x="140" y="247" type="line"/>
    </contour>
  </outline>
</glyph>
<glyph name="B" format="1">
  <advance width="459"/>
  <unicode hex="0042"/>
  <outline>
    <contour>
      <point x="169" y="0" type="curve" smooth="yes"/>
      <point x="8" y="0" type="line"/>
      <point x="131" y="700" type="line"/>
      <point x="285" y="700" type="line" smooth="yes"/>
      <point x="379" y="700"/>
      <point x="428" y="651"/>
      <point x="428" y="565" type="curve" smooth="yes"/>
      <point x="428" y="464"/>
      <point x="374" y="400"/>
      <point x="313" y="373" type="curve"/>
      <point x="357" y="356"/>
      <point x="392" y="319"/>
      <point x="392" y="241" type="curve" smooth="yes"/>
      <point x="392" y="89"/>
      <point x="297" y="0"/>
    </contour>
    <contour>
      <point x="357" y="553" type="curve" smooth="yes"/>
      <point x="357" y="606"/>
      <point x="332" y="635"/>
      <point x="275" y="635" type="curve" smooth="yes"/>
      <point x="190" y="635" type="line"/>
      <point x="149" y="404" type="line"/>
      <point x="231" y="404" type="line" smooth="yes"/>
      <point x="316" y="404"/>
      <point x="357" y="477"/>
    </contour>
    <contour>
      <point x="320" y="236" type="curve" smooth="yes"/>
      <point x="320" y="303"/>
      <point x="282" y="339"/>
      <point x="218" y="339" type="curve" smooth="yes"/>
      <point x="138" y="339" type="line"/>
      <point x="89" y="65" type="line"/>
      <point x="181" y="65" type="line" smooth="yes"/>
      <point x="267" y="65"/>
      <point x="320" y="133"/>
    </contour>
  </outline>
</glyph>
<glyph name="C" format="1">
  <advance width="433"/>
  <unicode hex="0043"/>
  <outline>
    <contour>
      <point x="384" y="137" type="line"/>
      <point x="344" y="46"/>
      <point x="285" y="-11"/>
      <point x="198" y="-11" type="curve" smooth="yes"/>
      <point x="92" y="-11"/>
      <point x="40" y="77"/>
      <point x="40" y="233" type="curve" smooth="yes"/>
      <point x="40" y="498"/>
      <point x="143" y="711"/>
      <point x="290" y="711" type="curve" smooth="yes"/>
      <point x="377" y="711"/>
      <point x="423" y="656"/>
      <point x="442" y="561" type="curve"/>
      <point x="375" y="533" type="line"/>
      <point x="365" y="610"/>
      <point x="336" y="646"/>
      <point x="290" y="646" type="curve" smooth="yes"/>
      <point x="186" y="646"/>
      <point x="109" y="453"/>
      <point x="109" y="218" type="curve" smooth="yes"/>
      <point x="109" y="104"/>
      <point x="145" y="54"/>
      <point x="205" y="54" type="curve" smooth="yes"/>
      <point x="257" y="54"/>
      <point x="295" y="88"/>
      <point x="330" y="166" type="curve"/>
    </contour>
  </outline>
</glyph>
<glyph name="D" format="1">
  <advance width="477"/>
  <unicode hex="0044"/>
  <outline>
    <contour>
      <point x="136" y="0" type="curve" smooth="yes"/>
      <point x="8" y="0" type="line"/>
      <point x="131" y="700" type="line"/>
      <point x="253" y="700" type="line" smooth="yes"/>
      <point x="374" y="700"/>
      <point x="442" y="621"/>
      <point x="442" y="467" type="curve" smooth="yes"/>
      <point x="442" y="196"/>
      <point x="325" y="0"/>
    </contour>
    <contour>
      <point x="371" y="463" type="curve" smooth="yes"/>
      <point x="371" y="584"/>
      <point x="323" y="635"/>
      <point x="243" y="635" type="curve" smooth="yes"/>
      <point x="190" y="635" type="line"/>
      <point x="89" y="65" type="line"/>
      <point x="150" y="65" type="line" smooth="yes"/>
      <point x="283" y="65"/>
      <point x="371" y="238"/>
    </contour>
  </outline>
</glyph>
<glyph name="E" format="1">
  <advance width="396"/>
  <unicode hex="0045"/>
  <outline>
    <contour>
      <point x="314" y="0" type="line"/>
      <point x="8" y="0" type="line"/>
      <point x="131" y="700" type="line"/>
      <point x="425" y="700" type="line"/>
      <point x="414" y="635" type="line"/>
      <point x="190" y="635" type="line"/>
      <point x="150" y="407" type="line"/>
      <point x="294" y="407" type="line"/>
      <point x="282" y="341" type="line"/>
      <point x="138" y="341" type="line"/>
      <point x="89" y="65" type="line"/>
      <point x="325" y="65" type="line"/>
    </contour>
  </outline>
</glyph>
<glyph name="F" format="1">
  <advance width="368"/>
  <unicode hex="0046"/>
  <outline>
    <contour>
      <point x="413" y="635" type="line"/>
      <point x="190" y="635" type="line"/>
      <point x="148" y="399" type="line"/>
      <point x="294" y="399" type="line"/>
      <point x="283" y="333" type="line"/>
      <point x="137" y="333" type="line"/>
      <point x="78" y="0" type="line"/>
      <point x="8" y="0" type="line"/>
      <point x="131" y="700" type="line"/>
      <point x="424" y="700" type="line"/>
    </contour>
  </outline>
</glyph>
<glyph name="G" format="1">
  <advance width="475"/>
  <unicode hex="0047"/>
  <outline>
    <contour>
      <point x="410" y="241" type="line" smooth="yes"/>
      <point x="385" y="93"/>
      <point x="318" y="-8"/>
      <point x="196" y="-8" type="curve" smooth="yes"/>
      <point x="87" y="-8"/>
      <point x="38" y="81"/>
      <point x="38" y="229" type="curve" smooth="yes"/>
      <point x="38" y="488"/>
      <point x="135" y="711"/>
      <point x="301" y="711" type="curve" smooth="yes"/>
      <point x="392" y="711"/>
      <point x="435" y="644"/>
      <point x="448" y="557" type="curve"/>
      <point x="380" y="530" type="line"/>
      <point x="369" y="610"/>
      <point x="342" y="646"/>
      <point x="296" y="646" type="curve" smooth="yes"/>
      <point x="186" y="646"/>
      <point x="107" y="443"/>
      <point x="107" y="227" type="curve" smooth="yes"/>
      <point x="107" y="108"/>
      <point x="142" y="56"/>
      <point x="204" y="56" type="curve" smooth="yes"/>
      <point x="278" y="56"/>
      <point x="321" y="116"/>
      <point x="341" y="236" type="curve" smooth="yes"/>
      <point x="350" y="289" type="line"/>
      <point x="257" y="289" type="line"/>
      <point x="267" y="354" type="line"/>
      <point x="429" y="354" type="line"/>
    </contour>
  </outline>
</glyph>
<glyph name="H" format="1">
  <advance width="498"/>
  <unicode hex="0048"/>
  <outline>
    <contour>
      <point x="367" y="0" type="line"/>
      <point x="298" y="0" type="line"/>
      <point x="358" y="338" type="line"/>
      <point x="138" y="338" type="line"/>
      <point x="78" y="0" type="line"/>
      <point x="8" y="0" type="line"/>
      <point x="131" y="700" type="line"/>
      <point x="201" y="700" type="line"/>
      <point x="149" y="403" type="line"/>
      <point x="369" y="403" type="line"/>
      <point x="421" y="700" type="line"/>
      <point x="490" y="700" type="line"/>
    </contour>
  </outline>
</glyph>
<glyph name="I" format="1">
  <advance width="219"/>
  <unicode hex="0049"/>
  <outline>
    <contour>
      <point x="83" y="0" type="line"/>
      <point x="13" y="0" type="line"/>
      <point x="136" y="700" type="line"/>
      <point x="206" y="700" type="line"/>
    </contour>
  </outline>
</glyph>
<glyph name="J" format="1">
  <advance width="402"/>
  <unicode hex="004A"/>
  <outline>
    <contour>
      <point x="307" y="203" type="line" smooth="yes"/>
      <point x="295" y="133"/>
      <point x="275" y="78"/>
      <point x="243" y="44" type="curve" smooth="yes"/>
      <point x="209" y="8"/>
      <point x="166" y="-11"/>
      <point x="113" y="-11" type="curve" smooth="yes"/>
      <point x="18" y="-11"/>
      <point x="-27" y="49"/>
      <point x="-25" y="162" type="curve"/>
      <point x="45" y="179" type="line"/>
      <point x="42" y="95"/>
      <point x="67" y="54"/>
      <point x="120" y="54" type="curve" smooth="yes"/>
      <point x="182" y="54"/>
      <point x="218" y="99"/>
      <point x="237" y="205" type="curve" smooth="yes"/>
      <point x="324" y="700" type="line"/>
      <point x="394" y="700" type="line"/>
    </contour>
  </outline>
</glyph>
<glyph name="K" format="1">
  <advance width="431"/>
  <unicode hex="004B"/>
  <outline>
    <contour>
      <point x="365" y="0" type="line"/>
      <point x="294" y="0" type="line"/>
      <point x="215" y="373" type="line"/>
      <point x="123" y="258" type="line"/>
      <point x="78" y="0" type="line"/>
      <point x="8" y="0" type="line"/>
      <point x="131" y="700" type="line"/>
      <point x="201" y="700" type="line"/>
      <point x="161" y="469" type="line" smooth="yes"/>
      <point x="156" y="440"/>
      <point x="144" y="380"/>
      <point x="140" y="356" type="curve"/>
      <point x="165" y="391"/>
      <point x="209" y="452"/>
      <point x="241" y="494" type="curve" smooth="yes"/>
      <point x="397" y="700" type="line"/>
      <point x="472" y="700" type="line"/>
      <point x="271" y="438" type="line"/>
    </contour>
  </outline>
</glyph>
<glyph name="L" format="1">
  <advance width="355"/>
  <unicode hex="004C"/>
  <outline>
    <contour>
      <point x="296" y="0" type="line"/>
      <point x="8" y="0" type="line"/>
      <point x="131" y="700" type="line"/>
      <point x="201" y="700" type="line"/>
      <point x="89" y="65" type="line"/>
      <point x="307" y="65" type="line"/>
    </contour>
  </outline>
</glyph>
<glyph name="M" format="1">
  <advance width="580"/>
  <unicode hex="004D"/>
  <outline>
    <contour>
      <point x="449" y="0" type="line"/>
      <point x="384" y="0" type="line"/>
      <point x="458" y="419" type="line" smooth="yes"/>
      <point x="464" y="454"/>
      <point x="484" y="541"/>
      <point x="491" y="572" type="curve"/>
      <point x="476" y="530"/>
      <point x="445" y="455"/>
      <point x="421" y="403" type="curve" smooth="yes"/>
      <point x="224" y="-20" type="line"/>
      <point x="177" y="403" type="line" smooth="yes"/>
      <point x="171" y="456"/>
      <point x="167" y="532"/>
      <point x="167" y="575" type="curve"/>
      <point x="164" y="545"/>
      <point x="154" y="459"/>
      <point x="147" y="419" type="curve" smooth="yes"/>
      <point x="73" y="0" type="line"/>
      <point x="8" y="0" type="line"/>
      <point x="131" y="700" type="line"/>
      <point x="208" y="700" type="line"/>
      <point x="250" y="332" type="line" smooth="yes"/>
      <point x="257" y="271"/>
      <point x="261" y="213"/>
      <point x="257" y="166" type="curve"/>
      <point x="272" y="213"/>
      <point x="298" y="271"/>
      <point x="326" y="332" type="curve" smooth="yes"/>
      <point x="496" y="700" type="line"/>
      <point x="572" y="700" type="line"/>
    </contour>
  </outline>
</glyph>
<glyph name="N" format="1">
  <advance width="498"/>
  <unicode hex="004E"/>
  <outline>
    <contour>
      <point x="367" y="0" type="line"/>
      <point x="308" y="0" type="line"/>
      <point x="213" y="384" type="line" smooth="yes"/>
      <point x="199" y="442"/>
      <point x="179" y="530"/>
      <point x="170" y="574" type="curve"/>
      <point x="167" y="545"/>
      <point x="155" y="462"/>
      <point x="148" y="420" type="curve" smooth="yes"/>
      <point x="74" y="0" type="line"/>
      <point x="8" y="0" type="line"/>
      <point x="131" y="700" type="line"/>
      <point x="199" y="700" type="line"/>
      <point x="294" y="334" type="line" smooth="yes"/>
      <point x="310" y="271"/>
      <point x="325" y="197"/>
      <point x="333" y="146" type="curve"/>
      <point x="335" y="175"/>
      <point x="347" y="256"/>
      <point x="354" y="298" type="curve" smooth="yes"/>
      <point x="424" y="700" type="line"/>
      <point x="490" y="700" type="line"/>
    </contour>
  </outline>
</glyph>
<glyph name="O" format="1">
  <advance width="494"/>
  <unicode hex="004F"/>
  <outline>
    <contour>
      <point x="195" y="-10" type="curve" smooth="yes"/>
      <point x="89" y="-10"/>
      <point x="39" y="76"/>
      <point x="39" y="228" type="curve" smooth="yes"/>
      <point x="39" y="471"/>
      <point x="128" y="710"/>
      <point x="298" y="710" type="curve" smooth="yes"/>
      <point x="401" y="710"/>
      <point x="455" y="628"/>
      <point x="455" y="473" type="curve" smooth="yes"/>
      <point x="455" y="243"/>
      <point x="370" y="-10"/>
    </contour>
    <contour>
      <point x="386" y="475" type="curve" smooth="yes"/>
      <point x="386" y="595"/>
      <point x="347" y="645"/>
      <point x="288" y="645" type="curve" smooth="yes"/>
      <point x="172" y="645"/>
      <point x="108" y="406"/>
      <point x="108" y="221" type="curve" smooth="yes"/>
      <point x="108" y="100"/>
      <point x="143" y="55"/>
      <point x="202" y="55" type="curve" smooth="yes"/>
      <point x="316" y="55"/>
      <point x="386" y="278"/>
    </contour>
  </outline>
</glyph>
<glyph name="P" format="1">
  <advance width="447"/>
  <unicode hex="0050"/>
  <outline>
    <contour>
      <point x="214" y="302" type="curve" smooth="yes"/>
      <point x="131" y="302" type="line"/>
      <point x="78" y="0" type="line"/>
      <point x="8" y="0" type="line"/>
      <point x="131" y="700" type="line"/>
      <point x="284" y="700" type="line" smooth="yes"/>
      <point x="382" y="700"/>
      <point x="444" y="652"/>
      <point x="444" y="547" type="curve" smooth="yes"/>
      <point x="444" y="375"/>
      <point x="330" y="302"/>
    </contour>
    <contour>
      <point x="374" y="538" type="curve" smooth="yes"/>
      <point x="374" y="602"/>
      <point x="338" y="635"/>
      <point x="276" y="635" type="curve" smooth="yes"/>
      <point x="190" y="635" type="line"/>
      <point x="143" y="367" type="line"/>
      <point x="229" y="367" type="line" smooth="yes"/>
      <point x="316" y="367"/>
      <point x="374" y="433"/>
    </contour>
  </outline>
</glyph>
<glyph name="Q" format="1">
  <advance width="494"/>
  <unicode hex="0051"/>
  <outline>
    <contour>
      <point x="344" y="69" type="curve"/>
      <point x="381" y="7" type="line"/>
      <point x="326" y="-31" type="line"/>
      <point x="326" y="-31"/>
      <point x="295" y="22"/>
      <point x="294" y="22" type="curve"/>
      <point x="265" y="1"/>
      <point x="232" y="-10"/>
      <point x="195" y="-10" type="curve" smooth="yes"/>
      <point x="86" y="-10"/>
      <point x="39" y="71"/>
      <point x="39" y="228" type="curve" smooth="yes"/>
      <point x="39" y="465"/>
      <point x="128" y="710"/>
      <point x="295" y="710" type="curve" smooth="yes"/>
      <point x="402" y="710"/>
      <point x="455" y="628"/>
      <point x="455" y="473" type="curve" smooth="yes"/>
      <point x="455" y="322"/>
      <point x="418" y="161"/>
    </contour>
    <contour>
      <point x="262" y="76" type="curve"/>
      <point x="224" y="141" type="line"/>
      <point x="278" y="179" type="line"/>
      <point x="308" y="129" type="line"/>
      <point x="358" y="211"/>
      <point x="386" y="348"/>
      <point x="386" y="475" type="curve" smooth="yes"/>
      <point x="386" y="595"/>
      <point x="349" y="645"/>
      <point x="287" y="645" type="curve" smooth="yes"/>
      <point x="171" y="645"/>
      <point x="108" y="404"/>
      <point x="108" y="221" type="curve" smooth="yes"/>
      <point x="108" y="99"/>
      <point x="144" y="55"/>
      <point x="205" y="55" type="curve" smooth="yes"/>
      <point x="226" y="55"/>
      <point x="245" y="62"/>
    </contour>
  </outline>
</glyph>
<glyph name="R" format="1">
  <advance width="465"/>
  <unicode hex="0052"/>
  <outline>
    <contour>
      <point x="357" y="0" type="line"/>
      <point x="287" y="0" type="line"/>
      <point x="238" y="318" type="line"/>
      <point x="229" y="317"/>
      <point x="147" y="318"/>
      <point x="134" y="318" type="curve"/>
      <point x="78" y="0" type="line"/>
      <point x="8" y="0" type="line"/>
      <point x="131" y="700" type="line"/>
      <point x="292" y="700" type="line" smooth="yes"/>
      <point x="387" y="700"/>
      <point x="446" y="651"/>
      <point x="446" y="548" type="curve" smooth="yes"/>
      <point x="446" y="444"/>
      <point x="385" y="366"/>
      <point x="306" y="335" type="curve"/>
    </contour>
    <contour>
      <point x="375" y="540" type="curve" smooth="yes"/>
      <point x="375" y="602"/>
      <point x="344" y="635"/>
      <point x="278" y="635" type="curve" smooth="yes"/>
      <point x="190" y="635" type="line"/>
      <point x="145" y="380" type="line"/>
      <point x="236" y="380" type="line" smooth="yes"/>
      <point x="322" y="380"/>
      <point x="375" y="452"/>
    </contour>
  </outline>
</glyph>
<glyph name="S" format="1">
  <advance width="392"/>
  <unicode hex="0053"/>
  <outline>
    <contour>
      <point x="150" y="-11" type="curve" smooth="yes"/>
      <point x="65" y="-11"/>
      <point x="4" y="50"/>
      <point x="-10" y="128" type="curve"/>
      <point x="58" y="157" type="line"/>
      <point x="66" y="93"/>
      <point x="105" y="54"/>
      <point x="156" y="54" type="curve" smooth="yes"/>
      <point x="225" y="54"/>
      <point x="268" y="106"/>
      <point x="268" y="180" type="curve" smooth="yes"/>
      <point x="268" y="236"/>
      <point x="240" y="286"/>
      <point x="170" y="341" type="curve" smooth="yes"/>
      <point x="109" y="389"/>
      <point x="61" y="451"/>
      <point x="61" y="526" type="curve" smooth="yes"/>
      <point x="61" y="631"/>
      <point x="133" y="711"/>
      <point x="237" y="711" type="curve" smooth="yes"/>
      <point x="321" y="711"/>
      <point x="366" y="663"/>
      <point x="388" y="594" type="curve"/>
      <point x="324" y="560" type="line"/>
      <point x="308" y="613"/>
      <point x="282" y="646"/>
      <point x="232" y="646" type="curve" smooth="yes"/>
      <point x="165" y="646"/>
      <point x="130" y="586"/>
      <point x="130" y="535" type="curve" smooth="yes"/>
      <point x="130" y="487"/>
      <point x="153" y="452"/>
      <point x="220" y="397" type="curve" smooth="yes"/>
      <point x="300" y="331"/>
      <point x="338" y="273"/>
      <point x="338" y="194" type="curve" smooth="yes"/>
      <point x="338" y="79"/>
      <point x="268" y="-11"/>
    </contour>
  </outline>
</glyph>
<glyph name="T" format="1">
  <advance width="376"/>
  <unicode hex="0054"/>
  <outline>
    <contour>
      <point x="407" y="636" type="line"/>
      <point x="265" y="636" type="line"/>
      <point x="153" y="0" type="line"/>
      <point x="84" y="0" type="line"/>
      <point x="196" y="636" type="line"/>
      <point x="55" y="636" type="line"/>
      <point x="66" y="700" type="line"/>
      <point x="418" y="700" type="line"/>
    </contour>
  </outline>
</glyph>
<glyph name="U" format="1">
  <advance width="503"/>
  <unicode hex="0055"/>
  <outline>
    <contour>
      <point x="409" y="210" type="line" smooth="yes"/>
      <point x="383" y="62"/>
      <point x="309" y="-11"/>
      <point x="196" y="-11" type="curve" smooth="yes"/>
      <point x="99" y="-11"/>
      <point x="40" y="46"/>
      <point x="39" y="148" type="curve" smooth="yes"/>
      <point x="39" y="167"/>
      <point x="41" y="187"/>
      <point x="45" y="209" type="curve" smooth="yes"/>
      <point x="131" y="700" type="line"/>
      <point x="201" y="700" type="line"/>
      <point x="115" y="211" type="line" smooth="yes"/>
      <point x="112" y="192"/>
      <point x="110" y="175"/>
      <point x="110" y="159" type="curve" smooth="yes"/>
      <point x="110" y="91"/>
      <point x="141" y="54"/>
      <point x="202" y="54" type="curve" smooth="yes"/>
      <point x="277" y="54"/>
      <point x="321" y="108"/>
      <point x="339" y="210" type="curve" smooth="yes"/>
      <point x="425" y="700" type="line"/>
      <point x="495" y="700" type="line"/>
    </contour>
  </outline>
</glyph>
<glyph name="V" format="1">
  <advance width="467"/>
  <unicode hex="0056"/>
  <outline>
    <contour>
      <point x="489" y="700" type="line"/>
      <point x="202" y="0" type="line"/>
      <point x="134" y="0" type="line"/>
      <point x="93" y="700" type="line"/>
      <point x="164" y="700" type="line"/>
      <point x="182" y="274" type="line" smooth="yes"/>
      <point x="185" y="209"/>
      <point x="185" y="142"/>
      <point x="184" y="90" type="curve"/>
      <point x="201" y="142"/>
      <point x="226" y="210"/>
      <point x="251" y="274" type="curve" smooth="yes"/>
      <point x="419" y="700" type="line"/>
    </contour>
  </outline>
</glyph>
<glyph name="W" format="1">
  <advance width="624"/>
  <unicode hex="0057"/>
  <outline>
    <contour>
      <point x="639" y="700" type="line"/>
      <point x="408" y="0" type="line"/>
      <point x="343" y="0" type="line"/>
      <point x="341" y="345" type="line" smooth="yes"/>
      <point x="341" y="405"/>
      <point x="343" y="508"/>
      <point x="348" y="572" type="curve"/>
      <point x="331" y="508"/>
      <point x="296" y="404"/>
      <point x="275" y="345" type="curve" smooth="yes"/>
      <point x="151" y="0" type="line"/>
      <point x="88" y="0" type="line"/>
      <point x="104" y="700" type="line"/>
      <point x="172" y="700" type="line"/>
      <point x="156" y="291" type="line" smooth="yes"/>
      <point x="154" y="243"/>
      <point x="150" y="169"/>
      <point x="146" y="129" type="curve"/>
      <point x="157" y="169"/>
      <point x="183" y="244"/>
      <point x="199" y="291" type="curve" smooth="yes"/>
      <point x="342" y="700" type="line"/>
      <point x="401" y="700" type="line"/>
      <point x="401" y="291" type="line" smooth="yes"/>
      <point x="401" y="244"/>
      <point x="400" y="169"/>
      <point x="397" y="129" type="curve"/>
      <point x="408" y="169"/>
      <point x="429" y="243"/>
      <point x="444" y="291" type="curve" smooth="yes"/>
      <point x="572" y="700" type="line"/>
    </contour>
  </outline>
</glyph>
<glyph name="X" format="1">
  <advance width="422"/>
  <unicode hex="0058"/>
  <outline>
    <contour>
      <point x="334" y="0" type="line"/>
      <point x="258" y="0" type="line"/>
      <point x="223" y="168" type="line" smooth="yes"/>
      <point x="213" y="216"/>
      <point x="205" y="264"/>
      <point x="201" y="300" type="curve"/>
      <point x="185" y="264"/>
      <point x="159" y="216"/>
      <point x="132" y="168" type="curve" smooth="yes"/>
      <point x="36" y="0" type="line"/>
      <point x="-38" y="0" type="line"/>
      <point x="175" y="363" type="line"/>
      <point x="97" y="700" type="line"/>
      <point x="173" y="700" type="line"/>
      <point x="202" y="560" type="line" smooth="yes"/>
      <point x="212" y="513"/>
      <point x="221" y="464"/>
      <point x="224" y="428" type="curve"/>
      <point x="241" y="464"/>
      <point x="268" y="513"/>
      <point x="294" y="560" type="curve" smooth="yes"/>
      <point x="372" y="700" type="line"/>
      <point x="445" y="700" type="line"/>
      <point x="249" y="365" type="line"/>
    </contour>
  </outline>
</glyph>
<glyph name="Y" format="1">
  <advance width="425"/>
  <unicode hex="0059"/>
  <outline>
    <contour>
      <point x="464" y="700" type="line"/>
      <point x="229" y="293" type="line"/>
      <point x="177" y="0" type="line"/>
      <point x="108" y="0" type="line"/>
      <point x="159" y="292" type="line"/>
      <point x="66" y="700" type="line"/>
      <point x="142" y="700" type="line"/>
      <point x="178" y="515" type="line" smooth="yes"/>
      <point x="189" y="459"/>
      <point x="201" y="396"/>
      <point x="206" y="356" type="curve"/>
      <point x="225" y="397"/>
      <point x="260" y="460"/>
      <point x="290" y="515" type="curve" smooth="yes"/>
      <point x="391" y="700" type="line"/>
    </contour>
  </outline>
</glyph>
<glyph name="Z" format="1">
  <advance width="408"/>
  <unicode hex="005A"/>
  <outline>
    <contour>
      <point x="312" y="0" type="line"/>
      <point x="-24" y="0" type="line"/>
      <point x="-13" y="61" type="line"/>
      <point x="325" y="593" type="line" smooth="yes"/>
      <point x="336" y="610"/>
      <point x="345" y="623"/>
      <point x="353" y="636" type="curve"/>
      <point x="323" y="636" type="line"/>
      <point x="105" y="636" type="line"/>
      <point x="116" y="700" type="line"/>
      <point x="435" y="700" type="line"/>
      <point x="425" y="639" type="line"/>
      <point x="88" y="107" type="line" smooth="yes"/>
      <point x="78" y="92"/>
      <point x="69" y="77"/>
      <point x="59" y="64" type="curve"/>
      <point x="89" y="64" type="line"/>
      <point x="323" y="64" type="line"/>
    </contour>
  </outline>
</glyph>
<glyph name="bracketleft" format="1">
  <advance width="286"/>
  <unicode hex="005B"/>
  <outline>
    <contour>
      <point x="170" y="-99" type="line"/>
      <point x="4" y="-99" type="line"/>
      <point x="144" y="700" type="line"/>
      <point x="310" y="700" type="line"/>
      <point x="300" y="640" type="line"/>
      <point x="200" y="640" type="line"/>
      <point x="80" y="-39" type="line"/>
      <point x="180" y="-39" type="line"/>
    </contour>
  </outline>
</glyph>
<glyph name="backslash" format="1">
  <advance width="303"/>
  <unicode hex="005C"/>
  <outline>
    <contour>
      <point x="219" y="-90" type="line"/>
      <point x="155" y="-90" type="line"/>
      <point x="84" y="790" type="line"/>
      <point x="148" y="790" type="line"/>
    </contour>
  </outline>
</glyph>
<glyph name="bracketright" format="1">
  <advance width="286"/>
  <unicode hex="005D"/>
  <outline>
    <contour>
      <point x="120" y="-99" type="line"/>
      <point x="-45" y="-99" type="line"/>
      <point x="-35" y="-39" type="line"/>
      <point x="65" y="-39" type="line"/>
      <point x="185" y="640" type="line"/>
      <point x="85" y="640" type="line"/>
      <point x="95" y="700" type="line"/>
      <point x="260" y="700" type="line"/>
    </contour>
  </outline>
</glyph>
<glyph name="underscore" format="1">
  <advance width="341"/>
  <unicode hex="005F"/>
  <outline>
    <contour>
      <point x="279" y="-152" type="line"/>
      <point x="-63" y="-152" type="line"/>
      <point x="-52" y="-92" type="line"/>
      <point x="290" y="-92" type="line"/>
    </contour>
  </outline>
</glyph>
<glyph name="grave" format="1">
  <advance width="395"/>
  <unicode hex="0060"/>
  <outline>
    <contour>
      <point x="284" y="595" type="line"/>
      <point x="240" y="595" type="line"/>
      <point x="138" y="755" type="line"/>
      <point x="226" y="755" type="line"/>
    </contour>
  </outline>
</glyph>
<glyph name="a" format="1">
  <advance width="415"/>
  <unicode hex="0061"/>
  <outline>
    <contour>
      <point x="294" y="0" type="line"/>
      <point x="226" y="0" type="line"/>
      <point x="234" y="44" type="line"/>
      <point x="205" y="14"/>
      <point x="169" y="-11"/>
      <point x="124" y="-11" type="curve" smooth="yes"/>
      <point x="61" y="-11"/>
      <point x="1" y="30"/>
      <point x="1" y="125" type="curve" smooth="yes"/>
      <point x="1" y="267"/>
      <point x="96" y="331"/>
      <point x="189" y="331" type="curve" smooth="yes"/>
      <point x="220" y="331"/>
      <point x="258" y="321"/>
      <point x="280" y="308" type="curve"/>
      <point x="293" y="382" type="line" smooth="yes"/>
      <point x="295" y="394"/>
      <point x="296" y="405"/>
      <point x="296" y="414" type="curve" smooth="yes"/>
      <point x="296" y="454"/>
      <point x="274" y="474"/>
      <point x="229" y="474" type="curve" smooth="yes"/>
      <point x="191" y="474"/>
      <point x="156" y="459"/>
      <point x="114" y="431" type="curve"/>
      <point x="92" y="483" type="line"/>
      <point x="141" y="516"/>
      <point x="191" y="536"/>
      <point x="245" y="536" type="curve" smooth="yes"/>
      <point x="320" y="536"/>
      <point x="367" y="510"/>
      <point x="367" y="436" type="curve" smooth="yes"/>
      <point x="367" y="422"/>
      <point x="366" y="406"/>
      <point x="363" y="389" type="curve" smooth="yes"/>
    </contour>
    <contour>
      <point x="244" y="103" type="curve"/>
      <point x="270" y="250" type="line"/>
      <point x="247" y="264"/>
      <point x="218" y="273"/>
      <point x="183" y="273" type="curve" smooth="yes"/>
      <point x="112" y="273"/>
      <point x="68" y="209"/>
      <point x="68" y="130" type="curve" smooth="yes"/>
      <point x="68" y="75"/>
      <point x="96" y="49"/>
      <point x="137" y="49" type="curve" smooth="yes"/>
      <point x="172" y="49"/>
      <point x="207" y="66"/>
    </contour>
  </outline>
</glyph>
<glyph name="b" format="1">
  <advance width="444"/>
  <unicode hex="0062"/>
  <outline>
    <contour>
      <point x="177" y="-11" type="curve" smooth="yes"/>
      <point x="131" y="-11"/>
      <point x="103" y="11"/>
      <point x="83" y="40" type="curve"/>
      <point x="76" y="0" type="line"/>
      <point x="8" y="0" type="line"/>
      <point x="129" y="689" type="line"/>
      <point x="205" y="729" type="line"/>
      <point x="161" y="480" type="line"/>
      <point x="193" y="511"/>
      <point x="230" y="536"/>
      <point x="279" y="536" type="curve" smooth="yes"/>
      <point x="355" y="536"/>
      <point x="393" y="477"/>
      <point x="393" y="365" type="curve" smooth="yes"/>
      <point x="393" y="157"/>
      <point x="299" y="-11"/>
    </contour>
    <contour>
      <point x="324" y="363" type="curve" smooth="yes"/>
      <point x="324" y="438"/>
      <point x="302" y="474"/>
      <point x="255" y="474" type="curve" smooth="yes"/>
      <point x="217" y="474"/>
      <point x="183" y="453"/>
      <point x="150" y="422" type="curve"/>
      <point x="95" y="105" type="line"/>
      <point x="113" y="72"/>
      <point x="141" y="51"/>
      <point x="184" y="51" type="curve" smooth="yes"/>
      <point x="269" y="51"/>
      <point x="324" y="212"/>
    </contour>
  </outline>
</glyph>
<glyph name="c" format="1">
  <advance width="375"/>
  <unicode hex="0063"/>
  <outline>
    <contour>
      <point x="318" y="82" type="line"/>
      <point x="275" y="24"/>
      <point x="230" y="-11"/>
      <point x="167" y="-11" type="curve" smooth="yes"/>
      <point x="82" y="-11"/>
      <point x="25" y="56"/>
      <point x="25" y="182" type="curve" smooth="yes"/>
      <point x="25" y="412"/>
      <point x="131" y="536"/>
      <point x="241" y="536" type="curve" smooth="yes"/>
      <point x="308" y="536"/>
      <point x="347" y="496"/>
      <point x="369" y="445" type="curve"/>
      <point x="312" y="404" type="line"/>
      <point x="293" y="446"/>
      <point x="274" y="473"/>
      <point x="232" y="473" type="curve" smooth="yes"/>
      <point x="161" y="473"/>
      <point x="95" y="364"/>
      <point x="95" y="192" type="curve" smooth="yes"/>
      <point x="95" y="106"/>
      <point x="120" y="52"/>
      <point x="176" y="52" type="curve" smooth="yes"/>
      <point x="215" y="52"/>
      <point x="244" y="76"/>
      <point x="276" y="120" type="curve"/>
    </contour>
  </outline>
</glyph>
<glyph name="d" format="1">
  <advance width="444"/>
  <unicode hex="0064"/>
  <outline>
    <contour>
      <point x="316" y="0" type="line"/>
      <point x="248" y="0" type="line"/>
      <point x="256" y="45" type="line"/>
      <point x="223" y="14"/>
      <point x="190" y="-11"/>
      <point x="141" y="-11" type="curve" smooth="yes"/>
      <point x="67" y="-11"/>
      <point x="24" y="48"/>
      <point x="24" y="156" type="curve" smooth="yes"/>
      <point x="24" y="383"/>
      <point x="117" y="536"/>
      <point x="239" y="536" type="curve" smooth="yes"/>
      <point x="286" y="536"/>
      <point x="311" y="514"/>
      <point x="334" y="485" type="curve"/>
      <point x="369" y="689" type="line"/>
      <point x="445" y="729" type="line"/>
    </contour>
    <contour>
      <point x="266" y="103" type="curve"/>
      <point x="322" y="420" type="line"/>
      <point x="302" y="452"/>
      <point x="275" y="474"/>
      <point x="233" y="474" type="curve" smooth="yes"/>
      <point x="148" y="474"/>
      <point x="93" y="314"/>
      <point x="93" y="162" type="curve" smooth="yes"/>
      <point x="93" y="86"/>
      <point x="117" y="51"/>
      <point x="164" y="51" type="curve" smooth="yes"/>
      <point x="202" y="51"/>
      <point x="233" y="71"/>
    </contour>
  </outline>
</glyph>
<glyph name="e" format="1">
  <advance width="407"/>
  <unicode hex="0065"/>
  <outline>
    <contour>
      <point x="372" y="346" type="curve" smooth="yes"/>
      <point x="372" y="303"/>
      <point x="364" y="247"/>
      <point x="362" y="239" type="curve"/>
      <point x="98" y="239" type="line"/>
      <point x="96" y="217"/>
      <point x="95" y="197"/>
      <point x="95" y="178" type="curve" smooth="yes"/>
      <point x="95" y="95"/>
      <point x="126" y="52"/>
      <point x="178" y="52" type="curve" smooth="yes"/>
      <point x="220" y="52"/>
      <point x="251" y="70"/>
      <point x="290" y="111" type="curve"/>
      <point x="324" y="67" type="line"/>
      <point x="275" y="14"/>
      <point x="230" y="-11"/>
      <point x="168" y="-11" type="curve" smooth="yes"/>
      <point x="89" y="-11"/>
      <point x="26" y="47"/>
      <point x="26" y="190" type="curve" smooth="yes"/>
      <point x="26" y="393"/>
      <point x="120" y="536"/>
      <point x="237" y="536" type="curve" smooth="yes"/>
      <point x="344" y="536"/>
      <point x="372" y="437"/>
    </contour>
    <contour>
      <point x="305" y="300" type="line"/>
      <point x="312" y="401"/>
      <point x="294" y="473"/>
      <point x="229" y="473" type="curve" smooth="yes"/>
      <point x="174" y="473"/>
      <point x="127" y="416"/>
      <point x="107" y="300" type="curve"/>
    </contour>
  </outline>
</glyph>
<glyph name="f" format="1">
  <advance width="278"/>
  <unicode hex="0066"/>
  <outline>
    <contour>
      <point x="310" y="653" type="line"/>
      <point x="297" y="659"/>
      <point x="281" y="663"/>
      <point x="262" y="663" type="curve" smooth="yes"/>
      <point x="235" y="663"/>
      <point x="214" y="652"/>
      <point x="207" y="611" type="curve" smooth="yes"/>
      <point x="192" y="525" type="line"/>
      <point x="275" y="525" type="line"/>
      <point x="264" y="467" type="line"/>
      <point x="182" y="467" type="line"/>
      <point x="100" y="0" type="line"/>
      <point x="32" y="0" type="line"/>
      <point x="114" y="467" type="line"/>
      <point x="56" y="467" type="line"/>
      <point x="67" y="525" type="line"/>
      <point x="125" y="525" type="line"/>
      <point x="139" y="605" type="line" smooth="yes"/>
      <point x="154" y="691"/>
      <point x="203" y="726"/>
      <point x="266" y="726" type="curve" smooth="yes"/>
      <point x="292" y="726"/>
      <point x="309" y="722"/>
      <point x="322" y="717" type="curve"/>
    </contour>
  </outline>
</glyph>
<glyph name="g" format="1">
  <advance width="443"/>
  <unicode hex="0067"/>
  <outline>
    <contour>
      <point x="147" y="-11" type="curve" smooth="yes"/>
      <point x="73" y="-11"/>
      <point x="24" y="52"/>
      <point x="24" y="161" type="curve" smooth="yes"/>
      <point x="24" y="375"/>
      <point x="119" y="536"/>
      <point x="239" y="536" type="curve" smooth="yes"/>
      <point x="286" y="536"/>
      <point x="311" y="514"/>
      <point x="334" y="485" type="curve"/>
      <point x="341" y="525" type="line"/>
      <point x="409" y="525" type="line"/>
      <point x="324" y="48" type="line" smooth="yes"/>
      <point x="306" y="-54"/>
      <point x="281" y="-106"/>
      <point x="213" y="-148" type="curve" smooth="yes"/>
      <point x="187" y="-164"/>
      <point x="129" y="-186"/>
      <point x="71" y="-193" type="curve"/>
      <point x="59" y="-139" type="line"/>
      <point x="112" y="-133"/>
      <point x="157" y="-119"/>
      <point x="188" y="-98" type="curve" smooth="yes"/>
      <point x="224" y="-73"/>
      <point x="241" y="-36"/>
      <point x="252" y="23" type="curve" smooth="yes"/>
      <point x="256" y="45" type="line"/>
      <point x="228" y="16"/>
      <point x="195" y="-11"/>
    </contour>
    <contour>
      <point x="266" y="103" type="curve"/>
      <point x="322" y="420" type="line"/>
      <point x="302" y="452"/>
      <point x="275" y="474"/>
      <point x="233" y="474" type="curve" smooth="yes"/>
      <point x="148" y="474"/>
      <point x="93" y="314"/>
      <point x="93" y="162" type="curve" smooth="yes"/>
      <point x="93" y="92"/>
      <point x="117" y="51"/>
      <point x="164" y="51" type="curve" smooth="yes"/>
      <point x="202" y="51"/>
      <point x="233" y="71"/>
    </contour>
  </outline>
</glyph>
<glyph name="h" format="1">
  <advance width="443"/>
  <unicode hex="0068"/>
  <outline>
    <contour>
      <point x="322" y="0" type="line"/>
      <point x="253" y="0" type="line"/>
      <point x="315" y="352" type="line" smooth="yes"/>
      <point x="318" y="370"/>
      <point x="320" y="385"/>
      <point x="320" y="399" type="curve" smooth="yes"/>
      <point x="319" y="451"/>
      <point x="296" y="474"/>
      <point x="250" y="474" type="curve" smooth="yes"/>
      <point x="212" y="474"/>
      <point x="176" y="445"/>
      <point x="149" y="413" type="curve"/>
      <point x="76" y="0" type="line"/>
      <point x="8" y="0" type="line"/>
      <point x="129" y="689" type="line"/>
      <point x="205" y="729" type="line"/>
      <point x="161" y="481" type="line"/>
      <point x="189" y="510"/>
      <point x="230" y="536"/>
      <point x="277" y="536" type="curve" smooth="yes"/>
      <point x="347" y="536"/>
      <point x="390" y="494"/>
      <point x="390" y="412" type="curve" smooth="yes"/>
      <point x="390" y="396"/>
      <point x="388" y="379"/>
      <point x="385" y="360" type="curve" smooth="yes"/>
    </contour>
  </outline>
</glyph>
<glyph name="i" format="1">
  <advance width="212"/>
  <unicode hex="0069"/>
  <outline>
    <contour>
      <point x="204" y="674" type="curve" smooth="yes"/>
      <point x="204" y="647"/>
      <point x="183" y="624"/>
      <point x="158" y="624" type="curve" smooth="yes"/>
      <point x="131" y="624"/>
      <point x="109" y="647"/>
      <point x="109" y="674" type="curve" smooth="yes"/>
      <point x="109" y="701"/>
      <point x="131" y="724"/>
      <point x="158" y="724" type="curve" smooth="yes"/>
      <point x="183" y="724"/>
      <point x="204" y="701"/>
    </contour>
    <contour>
      <point x="79" y="0" type="line"/>
      <point x="11" y="0" type="line"/>
      <point x="104" y="525" type="line"/>
      <point x="172" y="525" type="line"/>
    </contour>
  </outline>
</glyph>
<glyph name="j" format="1">
  <advance width="212"/>
  <unicode hex="006A"/>
  <outline>
    <contour>
      <point x="204" y="674" type="curve" smooth="yes"/>
      <point x="204" y="647"/>
      <point x="183" y="624"/>
      <point x="158" y="624" type="curve" smooth="yes"/>
      <point x="131" y="624"/>
      <point x="109" y="647"/>
      <point x="109" y="674" type="curve" smooth="yes"/>
      <point x="109" y="701"/>
      <point x="131" y="724"/>
      <point x="158" y="724" type="curve" smooth="yes"/>
      <point x="183" y="724"/>
      <point x="204" y="701"/>
    </contour>
    <contour>
      <point x="81" y="10" type="line" smooth="yes"/>
      <point x="59" y="-115"/>
      <point x="22" y="-161"/>
      <point x="-93" y="-193" type="curve"/>
      <point x="-104" y="-138" type="line"/>
      <point x="-22" y="-112"/>
      <point x="-5" y="-88"/>
      <point x="12" y="8" type="curve" smooth="yes"/>
      <point x="104" y="525" type="line"/>
      <point x="172" y="525" type="line"/>
    </contour>
  </outline>
</glyph>
<glyph name="k" format="1">
  <advance width="386"/>
  <unicode hex="006B"/>
  <outline>
    <contour>
      <point x="319" y="0" type="line"/>
      <point x="246" y="0" type="line"/>
      <point x="187" y="269" type="line"/>
      <point x="105" y="167" type="line"/>
      <point x="76" y="0" type="line"/>
      <point x="8" y="0" type="line"/>
      <point x="129" y="689" type="line"/>
      <point x="205" y="729" type="line"/>
      <point x="132" y="315" type="line" smooth="yes"/>
      <point x="129" y="299"/>
      <point x="124" y="275"/>
      <point x="122" y="261" type="curve"/>
      <point x="133" y="280"/>
      <point x="153" y="307"/>
      <point x="165" y="323" type="curve" smooth="yes"/>
      <point x="320" y="525" type="line"/>
      <point x="396" y="525" type="line"/>
      <point x="242" y="334" type="line"/>
    </contour>
  </outline>
</glyph>
<glyph name="l" format="1">
  <advance width="212"/>
  <unicode hex="006C"/>
  <outline>
    <contour>
      <point x="79" y="0" type="line"/>
      <point x="11" y="0" type="line"/>
      <point x="132" y="689" type="line"/>
      <point x="208" y="729" type="line"/>
    </contour>
  </outline>
</glyph>
<glyph name="m" format="1">
  <advance width="659"/>
  <unicode hex="006D"/>
  <outline>
    <contour>
      <point x="538" y="0" type="line"/>
      <point x="469" y="0" type="line"/>
      <point x="531" y="352" type="line" smooth="yes"/>
      <point x="534" y="370"/>
      <point x="536" y="386"/>
      <point x="536" y="400" type="curve" smooth="yes"/>
      <point x="537" y="454"/>
      <point x="515" y="474"/>
      <point x="474" y="474" type="curve" smooth="yes"/>
      <point x="436" y="474"/>
      <point x="408" y="448"/>
      <point x="380" y="413" type="curve"/>
      <point x="308" y="0" type="line"/>
      <point x="239" y="0" type="line"/>
      <point x="301" y="352" type="line" smooth="yes"/>
      <point x="305" y="372"/>
      <point x="306" y="389"/>
      <point x="306" y="403" type="curve" smooth="yes"/>
      <point x="306" y="454"/>
      <point x="283" y="474"/>
      <point x="243" y="474" type="curve" smooth="yes"/>
      <point x="205" y="474"/>
      <point x="172" y="446"/>
      <point x="149" y="413" type="curve"/>
      <point x="76" y="0" type="line"/>
      <point x="8" y="0" type="line"/>
      <point x="101" y="525" type="line"/>
      <point x="169" y="525" type="line"/>
      <point x="161" y="481" type="line"/>
      <point x="190" y="513"/>
      <point x="225" y="536"/>
      <point x="272" y="536" type="curve" smooth="yes"/>
      <point x="326" y="536"/>
      <point x="357" y="508"/>
      <point x="370" y="469" type="curve"/>
      <point x="405" y="505"/>
      <point x="442" y="536"/>
      <point x="502" y="536" type="curve" smooth="yes"/>
      <point x="570" y="536"/>
      <point x="607" y="498"/>
      <point x="607" y="420" type="curve" smooth="yes"/>
      <point x="607" y="402"/>
      <point x="605" y="382"/>
      <point x="601" y="360" type="curve" smooth="yes"/>
    </contour>
  </outline>
</glyph>
<glyph name="n" format="1">
  <advance width="443"/>
  <unicode hex="006E"/>
  <outline>
    <contour>
      <point x="322" y="0" type="line"/>
      <point x="253" y="0" type="line"/>
      <point x="315" y="352" type="line" smooth="yes"/>
      <point x="318" y="368"/>
      <point x="319" y="382"/>
      <point x="319" y="395" type="curve" smooth="yes"/>
      <point x="319" y="450"/>
      <point x="297" y="474"/>
      <point x="253" y="474" type="curve" smooth="yes"/>
      <point x="211" y="474"/>
      <point x="176" y="445"/>
      <point x="149" y="413" type="curve"/>
      <point x="76" y="0" type="line"/>
      <point x="8" y="0" type="line"/>
      <point x="101" y="525" type="line"/>
      <point x="169" y="525" type="line"/>
      <point x="161" y="481" type="line"/>
      <point x="189" y="510"/>
      <point x="228" y="536"/>
      <point x="281" y="536" type="curve" smooth="yes"/>
      <point x="346" y="536"/>
      <point x="390" y="494"/>
      <point x="390" y="411" type="curve" smooth="yes"/>
      <point x="390" y="395"/>
      <point x="388" y="378"/>
      <point x="385" y="360" type="curve" smooth="yes"/>
    </contour>
  </outline>
</glyph>
<glyph name="o" format="1">
  <advance width="444"/>
  <unicode hex="006F"/>
  <outline>
    <contour>
      <point x="171" y="-11" type="curve" smooth="yes"/>
      <point x="81" y="-11"/>
      <point x="26" y="59"/>
      <point x="26" y="180" type="curve" smooth="yes"/>
      <point x="26" y="405"/>
      <point x="122" y="536"/>
      <point x="248" y="536" type="curve" smooth="yes"/>
      <point x="339" y="536"/>
      <point x="392" y="469"/>
      <point x="392" y="340" type="curve" smooth="yes"/>
      <point x="392" y="129"/>
      <point x="294" y="-11"/>
    </contour>
    <contour>
      <point x="323" y="333" type="curve" smooth="yes"/>
      <point x="323" y="430"/>
      <point x="293" y="473"/>
      <point x="237" y="473" type="curve" smooth="yes"/>
      <point x="153" y="473"/>
      <point x="95" y="347"/>
      <point x="95" y="183" type="curve" smooth="yes"/>
      <point x="95" y="95"/>
      <point x="127" y="52"/>
      <point x="181" y="52" type="curve" smooth="yes"/>
      <point x="262" y="52"/>
      <point x="323" y="171"/>
    </contour>
  </outline>
</glyph>
<glyph name="q" format="1">
  <advance width="444"/>
  <unicode hex="0071"/>
  <outline>
    <contour>
      <point x="289" y="-153" type="line"/>
      <point x="214" y="-193" type="line"/>
      <point x="256" y="45" type="line"/>
      <point x="226" y="15"/>
      <point x="191" y="-10"/>
      <point x="142" y="-10" type="curve" smooth="yes"/>
      <point x="66" y="-10"/>
      <point x="24" y="47"/>
      <point x="24" y="159" type="curve" smooth="yes"/>
      <point x="24" y="378"/>
      <point x="121" y="536"/>
      <point x="239" y="536" type="curve" smooth="yes"/>
      <point x="286" y="536"/>
      <point x="311" y="514"/>
      <point x="334" y="485" type="curve"/>
      <point x="341" y="525" type="line"/>
      <point x="409" y="525" type="line"/>
    </contour>
    <contour>
      <point x="266" y="103" type="curve"/>
      <point x="322" y="420" type="line"/>
      <point x="302" y="452"/>
      <point x="275" y="474"/>
      <point x="233" y="474" type="curve" smooth="yes"/>
      <point x="148" y="474"/>
      <point x="93" y="316"/>
      <point x="93" y="162" type="curve" smooth="yes"/>
      <point x="93" y="87"/>
      <point x="119" y="51"/>
      <point x="166" y="51" type="curve" smooth="yes"/>
      <point x="204" y="51"/>
      <point x="233" y="72"/>
    </contour>
  </outline>
</glyph>
<glyph name="r" format="1">
  <advance width="302"/>
  <unicode hex="0072"/>
  <outline>
    <contour>
      <point x="334" y="525" type="curve"/>
      <point x="302" y="454" type="line"/>
      <point x="285" y="465"/>
      <point x="269" y="470"/>
      <point x="242" y="470" type="curve" smooth="yes"/>
      <point x="209" y="470"/>
      <point x="174" y="443"/>
      <point x="148" y="410" type="curve"/>
      <point x="76" y="0" type="line"/>
      <point x="8" y="0" type="line"/>
      <point x="101" y="525" type="line"/>
      <point x="169" y="525" type="line"/>
      <point x="161" y="480" type="line"/>
      <point x="191" y="518"/>
      <point x="237" y="536"/>
      <point x="278" y="536" type="curve" smooth="yes"/>
      <point x="298" y="536"/>
      <point x="318" y="532"/>
    </contour>
  </outline>
</glyph>
<glyph name="s" format="1">
  <advance width="356"/>
  <unicode hex="0073"/>
  <outline>
    <contour>
      <point x="133" y="-10" type="curve" smooth="yes"/>
      <point x="60" y="-10"/>
      <point x="13" y="29"/>
      <point x="-11" y="75" type="curve"/>
      <point x="44" y="119" type="line"/>
      <point x="65" y="75"/>
      <point x="100" y="51"/>
      <point x="139" y="51" type="curve" smooth="yes"/>
      <point x="195" y="51"/>
      <point x="225" y="82"/>
      <point x="225" y="136" type="curve" smooth="yes"/>
      <point x="225" y="173"/>
      <point x="204" y="200"/>
      <point x="144" y="247" type="curve" smooth="yes"/>
      <point x="84" y="294"/>
      <point x="47" y="333"/>
      <point x="47" y="394" type="curve" smooth="yes"/>
      <point x="47" y="477"/>
      <point x="107" y="536"/>
      <point x="195" y="536" type="curve" smooth="yes"/>
      <point x="258" y="536"/>
      <point x="306" y="506"/>
      <point x="329" y="460" type="curve"/>
      <point x="272" y="417" type="line"/>
      <point x="253" y="452"/>
      <point x="230" y="475"/>
      <point x="189" y="475" type="curve" smooth="yes"/>
      <point x="147" y="475"/>
      <point x="113" y="448"/>
      <point x="113" y="405" type="curve" smooth="yes"/>
      <point x="113" y="369"/>
      <point x="132" y="345"/>
      <point x="187" y="301" type="curve" smooth="yes"/>
      <point x="250" y="250"/>
      <point x="291" y="212"/>
      <point x="291" y="143" type="curve" smooth="yes"/>
      <point x="291" y="46"/>
      <point x="223" y="-10"/>
    </contour>
  </outline>
</glyph>
<glyph name="t" format="1">
  <advance width="296"/>
  <unicode hex="0074"/>
  <outline>
    <contour>
      <point x="215" y="67" type="curve"/>
      <point x="198" y="4" type="line"/>
      <point x="173" y="-6"/>
      <point x="153" y="-11"/>
      <point x="122" y="-11" type="curve" smooth="yes"/>
      <point x="62" y="-11"/>
      <point x="37" y="26"/>
      <point x="50" y="100" type="curve" smooth="yes"/>
      <point x="114" y="467" type="line"/>
      <point x="60" y="467" type="line"/>
      <point x="71" y="525" type="line"/>
      <point x="125" y="525" type="line"/>
      <point x="153" y="689" type="line"/>
      <point x="228" y="729" type="line"/>
      <point x="192" y="525" type="line"/>
      <point x="293" y="525" type="line"/>
      <point x="282" y="467" type="line"/>
      <point x="182" y="467" type="line"/>
      <point x="119" y="107" type="line" smooth="yes"/>
      <point x="112" y="69"/>
      <point x="126" y="53"/>
      <point x="153" y="53" type="curve" smooth="yes"/>
      <point x="173" y="53"/>
      <point x="195" y="58"/>
    </contour>
  </outline>
</glyph>
<glyph name="u" format="1">
  <advance width="444"/>
  <unicode hex="0075"/>
  <outline>
    <contour>
      <point x="318" y="0" type="line"/>
      <point x="250" y="0" type="line"/>
      <point x="258" y="44" type="line"/>
      <point x="230" y="14"/>
      <point x="196" y="-11"/>
      <point x="144" y="-11" type="curve" smooth="yes"/>
      <point x="70" y="-11"/>
      <point x="28" y="30"/>
      <point x="28" y="110" type="curve" smooth="yes"/>
      <point x="28" y="127"/>
      <point x="29" y="145"/>
      <point x="33" y="165" type="curve" smooth="yes"/>
      <point x="97" y="525" type="line"/>
      <point x="166" y="525" type="line"/>
      <point x="104" y="173" type="line" smooth="yes"/>
      <point x="101" y="154"/>
      <point x="99" y="137"/>
      <point x="99" y="123" type="curve" smooth="yes"/>
      <point x="99" y="73"/>
      <point x="121" y="51"/>
      <point x="167" y="51" type="curve" smooth="yes"/>
      <point x="209" y="51"/>
      <point x="242" y="80"/>
      <point x="270" y="112" type="curve"/>
      <point x="343" y="525" type="line"/>
      <point x="411" y="525" type="line"/>
    </contour>
  </outline>
</glyph>
<glyph name="v" format="1">
  <advance width="411"/>
  <unicode hex="0076"/>
  <outline>
    <contour>
      <point x="411" y="525" type="line"/>
      <point x="173" y="0" type="line"/>
      <point x="112" y="0" type="line"/>
      <point x="61" y="525" type="line"/>
      <point x="132" y="525" type="line"/>
      <point x="155" y="168" type="line" smooth="yes"/>
      <point x="157" y="143"/>
      <point x="157" y="98"/>
      <point x="156" y="76" type="curve"/>
      <point x="163" y="98"/>
      <point x="182" y="143"/>
      <point x="192" y="168" type="curve" smooth="yes"/>
      <point x="341" y="525" type="line"/>
    </contour>
  </outline>
</glyph>
<glyph name="w" format="1">
  <advance width="577"/>
  <unicode hex="0077"/>
  <outline>
    <contour>
      <point x="567" y="525" type="line"/>
      <point x="371" y="0" type="line"/>
      <point x="312" y="0" type="line"/>
      <point x="303" y="319" type="line" smooth="yes"/>
      <point x="302" y="357"/>
      <point x="302" y="400"/>
      <point x="303" y="438" type="curve"/>
      <point x="293" y="400"/>
      <point x="277" y="357"/>
      <point x="262" y="319" type="curve" smooth="yes"/>
      <point x="140" y="0" type="line"/>
      <point x="82" y="0" type="line"/>
      <point x="72" y="525" type="line"/>
      <point x="138" y="525" type="line"/>
      <point x="134" y="230" type="line" smooth="yes"/>
      <point x="133" y="191"/>
      <point x="131" y="131"/>
      <point x="128" y="97" type="curve"/>
      <point x="139" y="131"/>
      <point x="160" y="192"/>
      <point x="175" y="229" type="curve" smooth="yes"/>
      <point x="291" y="525" type="line"/>
      <point x="349" y="525" type="line"/>
      <point x="359" y="229" type="line" smooth="yes"/>
      <point x="360" y="191"/>
      <point x="361" y="131"/>
      <point x="360" y="97" type="curve"/>
      <point x="369" y="131"/>
      <point x="388" y="190"/>
      <point x="402" y="230" type="curve" smooth="yes"/>
      <point x="502" y="525" type="line"/>
    </contour>
  </outline>
</glyph>
<glyph name="x" format="1">
  <advance width="375"/>
  <unicode hex="0078"/>
  <outline>
    <contour>
      <point x="289" y="0" type="line"/>
      <point x="214" y="0" type="line"/>
      <point x="179" y="155" type="line" smooth="yes"/>
      <point x="174" y="176"/>
      <point x="167" y="213"/>
      <point x="164" y="228" type="curve"/>
      <point x="159" y="214"/>
      <point x="137" y="178"/>
      <point x="124" y="155" type="curve" smooth="yes"/>
      <point x="34" y="0" type="line"/>
      <point x="-37" y="0" type="line"/>
      <point x="139" y="277" type="line"/>
      <point x="68" y="525" type="line"/>
      <point x="142" y="525" type="line"/>
      <point x="170" y="400" type="line" smooth="yes"/>
      <point x="175" y="378"/>
      <point x="182" y="342"/>
      <point x="184" y="327" type="curve"/>
      <point x="191" y="342"/>
      <point x="211" y="377"/>
      <point x="225" y="400" type="curve" smooth="yes"/>
      <point x="298" y="525" type="line"/>
      <point x="370" y="525" type="line"/>
      <point x="210" y="278" type="line"/>
    </contour>
  </outline>
</glyph>
<glyph name="y" format="1">
  <advance width="416"/>
  <unicode hex="0079"/>
  <outline>
    <contour>
      <point x="426" y="525" type="line"/>
      <point x="103" y="-185" type="line"/>
      <point x="35" y="-185" type="line"/>
      <point x="122" y="-6" type="line"/>
      <point x="72" y="525" type="line"/>
      <point x="144" y="525" type="line"/>
      <point x="165" y="183" type="line" smooth="yes"/>
      <point x="166" y="159"/>
      <point x="171" y="95"/>
      <point x="170" y="74" type="curve"/>
      <point x="178" y="95"/>
      <point x="202" y="158"/>
      <point x="212" y="183" type="curve" smooth="yes"/>
      <point x="354" y="525" type="line"/>
    </contour>
  </outline>
</glyph>
<glyph name="z" format="1">
  <advance width="363"/>
  <unicode hex="007A"/>
  <outline>
    <contour>
      <point x="271" y="0" type="line"/>
      <point x="-23" y="0" type="line"/>
      <point x="-14" y="52" type="line"/>
      <point x="279" y="466" type="line"/>
      <point x="78" y="466" type="line"/>
      <point x="89" y="525" type="line"/>
      <point x="364" y="525" type="line"/>
      <point x="354" y="473" type="line"/>
      <point x="61" y="59" type="line"/>
      <point x="281" y="59" type="line"/>
    </contour>
  </outline>
</glyph>
<glyph name="braceleft" format="1">
  <advance width="309"/>
  <unicode hex="007B"/>
  <outline>
    <contour>
      <point x="207" y="-110" type="line"/>
      <point x="85" y="-104"/>
      <point x="49" y="-51"/>
      <point x="73" y="82" type="curve" smooth="yes"/>
      <point x="91" y="183" type="line" smooth="yes"/>
      <point x="103" y="250"/>
      <point x="88" y="268"/>
      <point x="49" y="268" type="curve" smooth="yes"/>
      <point x="29" y="268" type="line"/>
      <point x="40" y="330" type="line"/>
      <point x="60" y="330" type="line" smooth="yes"/>
      <point x="99" y="330"/>
      <point x="120" y="347"/>
      <point x="132" y="414" type="curve" smooth="yes"/>
      <point x="150" y="517" type="line" smooth="yes"/>
      <point x="173" y="649"/>
      <point x="227" y="703"/>
      <point x="351" y="709" type="curve"/>
      <point x="341" y="653" type="line"/>
      <point x="259" y="642"/>
      <point x="232" y="614"/>
      <point x="217" y="527" type="curve" smooth="yes"/>
      <point x="200" y="429" type="line" smooth="yes"/>
      <point x="186" y="350"/>
      <point x="167" y="318"/>
      <point x="120" y="299" type="curve"/>
      <point x="160" y="280"/>
      <point x="168" y="247"/>
      <point x="154" y="168" type="curve" smooth="yes"/>
      <point x="137" y="72" type="line" smooth="yes"/>
      <point x="122" y="-15"/>
      <point x="138" y="-43"/>
      <point x="216" y="-54" type="curve"/>
    </contour>
  </outline>
</glyph>
<glyph name="bar" format="1">
  <advance width="234"/>
  <unicode hex="007C"/>
  <outline>
    <contour>
      <point x="63" y="-185" type="line"/>
      <point x="-3" y="-185" type="line"/>
      <point x="171" y="800" type="line"/>
      <point x="237" y="800" type="line"/>
    </contour>
  </outline>
</glyph>
<glyph name="braceright" format="1">
  <advance width="309"/>
  <unicode hex="007D"/>
  <outline>
    <contour>
      <point x="254" y="269" type="line"/>
      <point x="233" y="269" type="line" smooth="yes"/>
      <point x="195" y="269"/>
      <point x="175" y="251"/>
      <point x="163" y="185" type="curve" smooth="yes"/>
      <point x="144" y="82" type="line" smooth="yes"/>
      <point x="119" y="-51"/>
      <point x="68" y="-104"/>
      <point x="-56" y="-110" type="curve"/>
      <point x="-47" y="-54" type="line"/>
      <point x="35" y="-43"/>
      <point x="63" y="-15"/>
      <point x="78" y="72" type="curve" smooth="yes"/>
      <point x="95" y="170" type="line" smooth="yes"/>
      <point x="109" y="249"/>
      <point x="128" y="281"/>
      <point x="175" y="300" type="curve"/>
      <point x="134" y="319"/>
      <point x="127" y="352"/>
      <point x="141" y="430" type="curve" smooth="yes"/>
      <point x="158" y="527" type="line" smooth="yes"/>
      <point x="173" y="614"/>
      <point x="156" y="642"/>
      <point x="78" y="653" type="curve"/>
      <point x="88" y="709" type="line"/>
      <point x="210" y="703"/>
      <point x="244" y="649"/>
      <point x="221" y="517" type="curve" smooth="yes"/>
      <point x="203" y="415" type="line" smooth="yes"/>
      <point x="191" y="349"/>
      <point x="206" y="331"/>
      <point x="244" y="331" type="curve" smooth="yes"/>
      <point x="265" y="331" type="line"/>
    </contour>
  </outline>
</glyph>
<glyph name="cent" format="1">
  <advance width="395"/>
  <unicode hex="00A2"/>
  <outline>
    <contour>
      <point x="340" y="173" type="line"/>
      <point x="305" y="126"/>
      <point x="266" y="97"/>
      <point x="219" y="87" type="curve"/>
      <point x="202" y="-11" type="line"/>
      <point x="133" y="-11" type="line"/>
      <point x="150" y="87" type="line"/>
      <point x="88" y="104"/>
      <point x="51" y="165"/>
      <point x="51" y="268" type="curve" smooth="yes"/>
      <point x="51" y="464"/>
      <point x="147" y="599"/>
      <point x="245" y="624" type="curve"/>
      <point x="262" y="720" type="line"/>
      <point x="331" y="720" type="line"/>
      <point x="314" y="626" type="line"/>
      <point x="364" y="614"/>
      <point x="389" y="579"/>
      <point x="404" y="539" type="curve"/>
      <point x="347" y="498" type="line"/>
      <point x="327" y="541"/>
      <point x="312" y="567"/>
      <point x="269" y="567" type="curve" smooth="yes"/>
      <point x="200" y="567"/>
      <point x="121" y="439"/>
      <point x="121" y="277" type="curve" smooth="yes"/>
      <point x="121" y="195"/>
      <point x="144" y="145"/>
      <point x="198" y="145" type="curve" smooth="yes"/>
      <point x="236" y="145"/>
      <point x="266" y="169"/>
      <point x="300" y="213" type="curve"/>
    </contour>
  </outline>
</glyph>
<glyph name="sterling" format="1">
  <advance width="446"/>
  <unicode hex="00A3"/>
  <outline>
    <contour>
      <point x="354" y="0" type="line"/>
      <point x="11" y="0" type="line"/>
      <point x="22" y="64" type="line"/>
      <point x="79" y="137"/>
      <point x="119" y="197"/>
      <point x="136" y="295" type="curve"/>
      <point x="63" y="295" type="line"/>
      <point x="74" y="359" type="line"/>
      <point x="138" y="359" type="line"/>
      <point x="137" y="381"/>
      <point x="133" y="401"/>
      <point x="127" y="424" type="curve" smooth="yes"/>
      <point x="121" y="448"/>
      <point x="118" y="472"/>
      <point x="118" y="499" type="curve" smooth="yes"/>
      <point x="118" y="625"/>
      <point x="193" y="711"/>
      <point x="307" y="711" type="curve" smooth="yes"/>
      <point x="388" y="711"/>
      <point x="433" y="669"/>
      <point x="456" y="583" type="curve"/>
      <point x="393" y="551" type="line"/>
      <point x="376" y="616"/>
      <point x="345" y="646"/>
      <point x="295" y="646" type="curve" smooth="yes"/>
      <point x="218" y="646"/>
      <point x="189" y="581"/>
      <point x="189" y="515" type="curve" smooth="yes"/>
      <point x="189" y="491"/>
      <point x="192" y="465"/>
      <point x="197" y="442" type="curve" smooth="yes"/>
      <point x="202" y="418"/>
      <point x="206" y="389"/>
      <point x="207" y="359" type="curve"/>
      <point x="317" y="359" type="line"/>
      <point x="306" y="295" type="line"/>
      <point x="202" y="295" type="line"/>
      <point x="181" y="184"/>
      <point x="144" y="131"/>
      <point x="97" y="65" type="curve"/>
      <point x="365" y="65" type="line"/>
    </contour>
  </outline>
</glyph>
<glyph name="yen" format="1">
  <advance width="440"/>
  <unicode hex="00A5"/>
  <outline>
    <contour>
      <point x="459" y="700" type="line"/>
      <point x="225" y="290" type="line"/>
      <point x="209" y="198" type="line"/>
      <point x="319" y="198" type="line"/>
      <point x="308" y="135" type="line"/>
      <point x="198" y="135" type="line"/>
      <point x="174" y="0" type="line"/>
      <point x="107" y="0" type="line"/>
      <point x="131" y="135" type="line"/>
      <point x="18" y="135" type="line"/>
      <point x="29" y="198" type="line"/>
      <point x="142" y="198" type="line"/>
      <point x="158" y="289" type="line"/>
      <point x="69" y="700" type="line"/>
      <point x="144" y="700" type="line"/>
      <point x="181" y="515" type="line" smooth="yes"/>
      <point x="192" y="458"/>
      <point x="201" y="400"/>
      <point x="205" y="359" type="curve"/>
      <point x="224" y="400"/>
      <point x="255" y="460"/>
      <point x="285" y="515" type="curve" smooth="yes"/>
      <point x="386" y="700" type="line"/>
    </contour>
  </outline>
</glyph>
<glyph name="section" format="1">
  <advance width="451"/>
  <unicode hex="00A7"/>
  <outline>
    <contour>
      <point x="276" y="99" type="curve"/>
      <point x="295" y="76"/>
      <point x="306" y="48"/>
      <point x="306" y="12" type="curve" smooth="yes"/>
      <point x="306" y="-93"/>
      <point x="238" y="-164"/>
      <point x="142" y="-164" type="curve" smooth="yes"/>
      <point x="70" y="-164"/>
      <point x="21" y="-128"/>
      <point x="2" y="-51" type="curve"/>
      <point x="65" y="-19" type="line"/>
      <point x="76" y="-74"/>
      <point x="106" y="-99"/>
      <point x="152" y="-99" type="curve" smooth="yes"/>
      <point x="200" y="-99"/>
      <point x="235" y="-59"/>
      <point x="235" y="-1" type="curve" smooth="yes"/>
      <point x="235" y="39"/>
      <point x="214" y="63"/>
      <point x="155" y="89" type="curve" smooth="yes"/>
      <point x="67" y="128"/>
      <point x="24" y="177"/>
      <point x="24" y="248" type="curve" smooth="yes"/>
      <point x="24" y="340"/>
      <point x="84" y="402"/>
      <point x="155" y="448" type="curve"/>
      <point x="131" y="472"/>
      <point x="118" y="509"/>
      <point x="118" y="543" type="curve" smooth="yes"/>
      <point x="118" y="648"/>
      <point x="189" y="711"/>
      <point x="283" y="711" type="curve" smooth="yes"/>
      <point x="355" y="711"/>
      <point x="407" y="675"/>
      <point x="429" y="598" type="curve"/>
      <point x="368" y="566" type="line"/>
      <point x="345" y="627"/>
      <point x="320" y="646"/>
      <point x="274" y="646" type="curve" smooth="yes"/>
      <point x="224" y="646"/>
      <point x="188" y="607"/>
      <point x="188" y="552" type="curve" smooth="yes"/>
      <point x="188" y="507"/>
      <point x="210" y="486"/>
      <point x="272" y="458" type="curve" smooth="yes"/>
      <point x="359" y="418"/>
      <point x="402" y="372"/>
      <point x="402" y="298" type="curve" smooth="yes"/>
      <point x="402" y="204"/>
      <point x="347" y="147"/>
    </contour>
    <contour>
      <point x="331" y="285" type="curve" smooth="yes"/>
      <point x="331" y="328"/>
      <point x="308" y="361"/>
      <point x="245" y="390" type="curve" smooth="yes"/>
      <point x="226" y="399"/>
      <point x="211" y="407"/>
      <point x="196" y="415" type="curve"/>
      <point x="133" y="375"/>
      <point x="95" y="324"/>
      <point x="95" y="261" type="curve" smooth="yes"/>
      <point x="95" y="216"/>
      <point x="119" y="183"/>
      <point x="183" y="157" type="curve" smooth="yes"/>
      <point x="201" y="150"/>
      <point x="218" y="142"/>
      <point x="234" y="133" type="curve"/>
      <point x="295" y="171"/>
      <point x="331" y="222"/>
    </contour>
  </outline>
</glyph>
<glyph name="dieresis" format="1">
  <advance width="395"/>
  <unicode hex="00A8"/>
  <outline>
    <contour>
      <point x="389" y="653" type="curve" smooth="yes"/>
      <point x="389" y="626"/>
      <point x="366" y="603"/>
      <point x="339" y="603" type="curve" smooth="yes"/>
      <point x="313" y="603"/>
      <point x="290" y="626"/>
      <point x="290" y="653" type="curve" smooth="yes"/>
      <point x="290" y="679"/>
      <point x="313" y="703"/>
      <point x="339" y="703" type="curve" smooth="yes"/>
      <point x="366" y="703"/>
      <point x="389" y="679"/>
    </contour>
    <contour>
      <point x="225" y="653" type="curve" smooth="yes"/>
      <point x="225" y="626"/>
      <point x="202" y="603"/>
      <point x="176" y="603" type="curve" smooth="yes"/>
      <point x="149" y="603"/>
      <point x="126" y="626"/>
      <point x="126" y="653" type="curve" smooth="yes"/>
      <point x="126" y="679"/>
      <point x="149" y="703"/>
      <point x="176" y="703" type="curve" smooth="yes"/>
      <point x="202" y="703"/>
      <point x="225" y="679"/>
    </contour>
  </outline>
</glyph>
<glyph name="ordfeminine" format="1">
  <advance width="353"/>
  <unicode hex="00AA"/>
  <outline>
    <contour>
      <point x="284" y="283" type="line"/>
      <point x="226" y="283" type="line"/>
      <point x="233" y="319" type="line"/>
      <point x="208" y="295"/>
      <point x="179" y="275"/>
      <point x="138" y="275" type="curve" smooth="yes"/>
      <point x="87" y="275"/>
      <point x="47" y="311"/>
      <point x="47" y="379" type="curve" smooth="yes"/>
      <point x="47" y="493"/>
      <point x="116" y="549"/>
      <point x="198" y="549" type="curve" smooth="yes"/>
      <point x="229" y="549"/>
      <point x="254" y="541"/>
      <point x="270" y="530" type="curve"/>
      <point x="280" y="587" type="line" smooth="yes"/>
      <point x="281" y="594"/>
      <point x="282" y="605"/>
      <point x="282" y="613" type="curve" smooth="yes"/>
      <point x="282" y="645"/>
      <point x="265" y="661"/>
      <point x="229" y="661" type="curve" smooth="yes"/>
      <point x="198" y="661"/>
      <point x="170" y="649"/>
      <point x="137" y="626" type="curve"/>
      <point x="119" y="670" type="line"/>
      <point x="158" y="696"/>
      <point x="198" y="712"/>
      <point x="242" y="712" type="curve" smooth="yes"/>
      <point x="303" y="712"/>
      <point x="342" y="691"/>
      <point x="342" y="629" type="curve" smooth="yes"/>
      <point x="342" y="619"/>
      <point x="341" y="607"/>
      <point x="339" y="595" type="curve" smooth="yes"/>
    </contour>
    <contour>
      <point x="241" y="368" type="curve"/>
      <point x="262" y="482" type="line"/>
      <point x="243" y="493"/>
      <point x="226" y="500"/>
      <point x="189" y="500" type="curve" smooth="yes"/>
      <point x="132" y="500"/>
      <point x="103" y="451"/>
      <point x="103" y="386" type="curve" smooth="yes"/>
      <point x="103" y="347"/>
      <point x="122" y="325"/>
      <point x="153" y="325" type="curve" smooth="yes"/>
      <point x="187" y="325"/>
      <point x="217" y="343"/>
    </contour>
  </outline>
</glyph>
<glyph name="guillemotleft" format="1">
  <advance width="454"/>
  <unicode hex="00AB"/>
  <outline>
    <contour>
      <point x="371" y="0" type="line"/>
      <point x="298" y="0" type="line"/>
      <point x="184" y="262" type="line"/>
      <point x="391" y="525" type="line"/>
      <point x="464" y="525" type="line"/>
      <point x="258" y="263" type="line"/>
    </contour>
    <contour>
      <point x="202" y="0" type="line"/>
      <point x="129" y="0" type="line"/>
      <point x="15" y="262" type="line"/>
      <point x="222" y="525" type="line"/>
      <point x="295" y="525" type="line"/>
      <point x="89" y="263" type="line"/>
    </contour>
  </outline>
</glyph>
<glyph name="degree" format="1">
  <advance width="392"/>
  <unicode hex="00B0"/>
  <outline>
    <contour>
      <point x="362" y="558" type="curve" smooth="yes"/>
      <point x="362" y="470"/>
      <point x="299" y="403"/>
      <point x="212" y="403" type="curve" smooth="yes"/>
      <point x="126" y="403"/>
      <point x="62" y="470"/>
      <point x="62" y="558" type="curve" smooth="yes"/>
      <point x="62" y="643"/>
      <point x="126" y="711"/>
      <point x="212" y="711" type="curve" smooth="yes"/>
      <point x="299" y="711"/>
      <point x="362" y="643"/>
    </contour>
    <contour>
      <point x="306" y="558" type="curve" smooth="yes"/>
      <point x="306" y="615"/>
      <point x="268" y="658"/>
      <point x="212" y="658" type="curve" smooth="yes"/>
      <point x="156" y="658"/>
      <point x="118" y="615"/>
      <point x="118" y="558" type="curve" smooth="yes"/>
      <point x="118" y="498"/>
      <point x="156" y="455"/>
      <point x="212" y="455" type="curve" smooth="yes"/>
      <point x="268" y="455"/>
      <point x="306" y="498"/>
    </contour>
  </outline>
</glyph>
<glyph name="acute" format="1">
  <advance width="395"/>
  <unicode hex="00B4"/>
  <outline>
    <contour>
      <point x="431" y="755" type="line"/>
      <point x="274" y="595" type="line"/>
      <point x="223" y="595" type="line"/>
      <point x="337" y="755" type="line"/>
    </contour>
  </outline>
</glyph>
<glyph name="paragraph" format="1">
  <advance width="556"/>
  <unicode hex="00B6"/>
  <outline>
    <contour>
      <point x="387" y="-185" type="line"/>
      <point x="321" y="-185" type="line"/>
      <point x="466" y="638" type="line"/>
      <point x="391" y="638" type="line"/>
      <point x="246" y="-185" type="line"/>
      <point x="179" y="-185" type="line"/>
      <point x="264" y="294" type="line"/>
      <point x="223" y="294" type="line" smooth="yes"/>
      <point x="124" y="294"/>
      <point x="56" y="356"/>
      <point x="56" y="467" type="curve" smooth="yes"/>
      <point x="56" y="615"/>
      <point x="179" y="700"/>
      <point x="294" y="700" type="curve" smooth="yes"/>
      <point x="543" y="700" type="line"/>
    </contour>
  </outline>
</glyph>
<glyph name="cedilla" format="1">
  <advance width="395"/>
  <unicode hex="00B8"/>
  <outline>
    <contour>
      <point x="245" y="-104" type="curve" smooth="yes"/>
      <point x="245" y="-164"/>
      <point x="186" y="-193"/>
      <point x="131" y="-193" type="curve" smooth="yes"/>
      <point x="100" y="-193"/>
      <point x="66" y="-181"/>
      <point x="42" y="-161" type="curve"/>
      <point x="64" y="-132" type="line"/>
      <point x="85" y="-148"/>
      <point x="109" y="-156"/>
      <point x="132" y="-156" type="curve" smooth="yes"/>
      <point x="168" y="-156"/>
      <point x="192" y="-138"/>
      <point x="192" y="-109" type="curve" smooth="yes"/>
      <point x="192" y="-89"/>
      <point x="182" y="-79"/>
      <point x="164" y="-79" type="curve" smooth="yes"/>
      <point x="150" y="-79"/>
      <point x="140" y="-83"/>
      <point x="129" y="-93" type="curve"/>
      <point x="98" y="-79" type="line"/>
      <point x="139" y="0" type="line"/>
      <point x="178" y="0" type="line"/>
      <point x="151" y="-52" type="line"/>
      <point x="162" y="-45"/>
      <point x="173" y="-41"/>
      <point x="192" y="-41" type="curve" smooth="yes"/>
      <point x="222" y="-41"/>
      <point x="245" y="-62"/>
    </contour>
  </outline>
</glyph>
<glyph name="ordmasculine" format="1">
  <advance width="376"/>
  <unicode hex="00BA"/>
  <outline>
    <contour>
      <point x="181" y="274" type="curve" smooth="yes"/>
      <point x="112" y="274"/>
      <point x="72" y="328"/>
      <point x="72" y="408" type="curve" smooth="yes"/>
      <point x="72" y="574"/>
      <point x="143" y="711"/>
      <point x="256" y="711" type="curve" smooth="yes"/>
      <point x="324" y="711"/>
      <point x="365" y="660"/>
      <point x="365" y="574" type="curve" smooth="yes"/>
      <point x="365" y="393"/>
      <point x="282" y="274"/>
    </contour>
    <contour>
      <point x="302" y="579" type="curve" smooth="yes"/>
      <point x="302" y="621"/>
      <point x="283" y="653"/>
      <point x="246" y="653" type="curve" smooth="yes"/>
      <point x="176" y="653"/>
      <point x="135" y="538"/>
      <point x="135" y="412" type="curve" smooth="yes"/>
      <point x="135" y="363"/>
      <point x="153" y="331"/>
      <point x="191" y="331" type="curve" smooth="yes"/>
      <point x="253" y="331"/>
      <point x="302" y="434"/>
    </contour>
  </outline>
</glyph>
<glyph name="guillemotright" format="1">
  <advance width="454"/>
  <unicode hex="00BB"/>
  <outline>
    <contour>
      <point x="421" y="263" type="line"/>
      <point x="215" y="0" type="line"/>
      <point x="142" y="0" type="line"/>
      <point x="348" y="262" type="line"/>
      <point x="235" y="525" type="line"/>
      <point x="308" y="525" type="line"/>
    </contour>
    <contour>
      <point x="252" y="263" type="line"/>
      <point x="46" y="0" type="line"/>
      <point x="-27" y="0" type="line"/>
      <point x="179" y="262" type="line"/>
      <point x="66" y="525" type="line"/>
      <point x="139" y="525" type="line"/>
    </contour>
  </outline>
</glyph>
<glyph name="questiondown" format="1">
  <advance width="379"/>
  <unicode hex="00BF"/>
  <outline>
    <contour>
      <point x="209" y="650" type="curve" smooth="yes"/>
      <point x="209" y="679"/>
      <point x="230" y="702"/>
      <point x="260" y="702" type="curve" smooth="yes"/>
      <point x="289" y="702"/>
      <point x="311" y="679"/>
      <point x="311" y="650" type="curve" smooth="yes"/>
      <point x="311" y="621"/>
      <point x="289" y="597"/>
      <point x="260" y="597" type="curve" smooth="yes"/>
      <point x="230" y="597"/>
      <point x="209" y="621"/>
    </contour>
    <contour>
      <point x="122" y="337" type="curve" smooth="yes"/>
      <point x="177" y="381"/>
      <point x="196" y="423"/>
      <point x="212" y="525" type="curve"/>
      <point x="278" y="525" type="line"/>
      <point x="260" y="402"/>
      <point x="237" y="354"/>
      <point x="152" y="287" type="curve" smooth="yes"/>
      <point x="99" y="245"/>
      <point x="71" y="195"/>
      <point x="71" y="136" type="curve" smooth="yes"/>
      <point x="71" y="87"/>
      <point x="95" y="54"/>
      <point x="144" y="54" type="curve" smooth="yes"/>
      <point x="193" y="54"/>
      <point x="229" y="83"/>
      <point x="266" y="149" type="curve"/>
      <point x="321" y="122" type="line"/>
      <point x="279" y="42"/>
      <point x="220" y="-11"/>
      <point x="131" y="-11" type="curve" smooth="yes"/>
      <point x="45" y="-11"/>
      <point x="-3" y="41"/>
      <point x="-3" y="122" type="curve" smooth="yes"/>
      <point x="-3" y="204"/>
      <point x="48" y="278"/>
    </contour>
  </outline>
</glyph>
<glyph name="Aring" format="1">
  <advance width="462"/>
  <unicode hex="00C5"/>
  <outline>
    <contour>
      <point x="336" y="665" type="curve"/>
      <point x="377" y="0" type="line"/>
      <point x="306" y="0" type="line"/>
      <point x="297" y="182" type="line"/>
      <point x="114" y="182" type="line"/>
      <point x="40" y="0" type="line"/>
      <point x="-29" y="0" type="line"/>
      <point x="248" y="670" type="line"/>
      <point x="216" y="688"/>
      <point x="196" y="722"/>
      <point x="196" y="761" type="curve" smooth="yes"/>
      <point x="196" y="818"/>
      <point x="239" y="862"/>
      <point x="298" y="862" type="curve" smooth="yes"/>
      <point x="358" y="862"/>
      <point x="401" y="818"/>
      <point x="401" y="761" type="curve" smooth="yes"/>
      <point x="401" y="717"/>
      <point x="375" y="680"/>
    </contour>
    <contour>
      <point x="356" y="761" type="curve" smooth="yes"/>
      <point x="356" y="794"/>
      <point x="333" y="819"/>
      <point x="298" y="819" type="curve" smooth="yes"/>
      <point x="263" y="819"/>
      <point x="241" y="794"/>
      <point x="241" y="761" type="curve" smooth="yes"/>
      <point x="241" y="726"/>
      <point x="263" y="701"/>
      <point x="298" y="701" type="curve" smooth="yes"/>
      <point x="333" y="701"/>
      <point x="356" y="726"/>
    </contour>
    <contour>
      <point x="294" y="247" type="line"/>
      <point x="285" y="422" type="line" smooth="yes"/>
      <point x="282" y="488"/>
      <point x="280" y="568"/>
      <point x="281" y="620" type="curve"/>
      <point x="266" y="569"/>
      <point x="235" y="486"/>
      <point x="209" y="421" type="curve" smooth="yes"/>
      <point x="140" y="247" type="line"/>
    </contour>
  </outline>
</glyph>
<glyph name="AE" format="1">
  <advance width="652"/>
  <unicode hex="00C6"/>
  <outline>
    <contour>
      <point x="570" y="0" type="line"/>
      <point x="267" y="0" type="line"/>
      <point x="299" y="182" type="line"/>
      <point x="125" y="182" type="line"/>
      <point x="17" y="0" type="line"/>
      <point x="-56" y="0" type="line"/>
      <point x="371" y="700" type="line"/>
      <point x="681" y="700" type="line"/>
      <point x="670" y="635" type="line"/>
      <point x="446" y="635" type="line"/>
      <point x="406" y="407" type="line"/>
      <point x="550" y="407" type="line"/>
      <point x="538" y="341" type="line"/>
      <point x="394" y="341" type="line"/>
      <point x="345" y="65" type="line"/>
      <point x="581" y="65" type="line"/>
    </contour>
    <contour>
      <point x="375" y="603" type="curve"/>
      <point x="360" y="574"/>
      <point x="328" y="514"/>
      <point x="306" y="477" type="curve" smooth="yes"/>
      <point x="165" y="247" type="line"/>
      <point x="311" y="247" type="line"/>
      <point x="350" y="471" type="line" smooth="yes"/>
      <point x="358" y="514"/>
      <point x="369" y="575"/>
    </contour>
  </outline>
</glyph>
<glyph name="Ccedilla" format="1">
  <advance width="433"/>
  <unicode hex="00C7"/>
  <outline>
    <contour>
      <point x="178" y="-11" type="line"/>
      <point x="82" y="-4"/>
      <point x="40" y="83"/>
      <point x="40" y="233" type="curve" smooth="yes"/>
      <point x="40" y="496"/>
      <point x="144" y="711"/>
      <point x="295" y="711" type="curve" smooth="yes"/>
      <point x="382" y="711"/>
      <point x="423" y="656"/>
      <point x="442" y="561" type="curve"/>
      <point x="375" y="533" type="line"/>
      <point x="365" y="610"/>
      <point x="334" y="646"/>
      <point x="285" y="646" type="curve" smooth="yes"/>
      <point x="189" y="646"/>
      <point x="111" y="471"/>
      <point x="111" y="227" type="curve" smooth="yes"/>
      <point x="111" y="113"/>
      <point x="146" y="54"/>
      <point x="205" y="54" type="curve" smooth="yes"/>
      <point x="257" y="54"/>
      <point x="295" y="88"/>
      <point x="330" y="166" type="curve"/>
      <point x="384" y="137" type="line"/>
      <point x="346" y="55"/>
      <point x="295" y="1"/>
      <point x="218" y="-9" type="curve"/>
      <point x="196" y="-52" type="line"/>
      <point x="207" y="-45"/>
      <point x="218" y="-41"/>
      <point x="237" y="-41" type="curve" smooth="yes"/>
      <point x="267" y="-41"/>
      <point x="290" y="-62"/>
      <point x="290" y="-104" type="curve" smooth="yes"/>
      <point x="290" y="-164"/>
      <point x="231" y="-193"/>
      <point x="176" y="-193" type="curve" smooth="yes"/>
      <point x="145" y="-193"/>
      <point x="111" y="-181"/>
      <point x="87" y="-161" type="curve"/>
      <point x="109" y="-132" type="line"/>
      <point x="130" y="-148"/>
      <point x="154" y="-156"/>
      <point x="177" y="-156" type="curve" smooth="yes"/>
      <point x="213" y="-156"/>
      <point x="237" y="-138"/>
      <point x="237" y="-109" type="curve" smooth="yes"/>
      <point x="237" y="-89"/>
      <point x="227" y="-79"/>
      <point x="209" y="-79" type="curve" smooth="yes"/>
      <point x="195" y="-79"/>
      <point x="185" y="-83"/>
      <point x="174" y="-93" type="curve"/>
      <point x="143" y="-79" type="line"/>
    </contour>
  </outline>
</glyph>
<glyph name="Eth" format="1">
  <advance width="477"/>
  <unicode hex="00D0"/>
  <outline>
    <contour>
      <point x="67" y="334" type="line"/>
      <point x="20" y="334" type="line"/>
      <point x="31" y="398" type="line"/>
      <point x="78" y="398" type="line"/>
      <point x="131" y="700" type="line"/>
      <point x="255" y="700" type="line" smooth="yes"/>
      <point x="376" y="700"/>
      <point x="442" y="621"/>
      <point x="442" y="467" type="curve" smooth="yes"/>
      <point x="442" y="196"/>
      <point x="315" y="0"/>
      <point x="136" y="0" type="curve" smooth="yes"/>
      <point x="8" y="0" type="line"/>
    </contour>
    <contour>
      <point x="148" y="398" type="line"/>
      <point x="243" y="398" type="line"/>
      <point x="232" y="334" type="line"/>
      <point x="137" y="334" type="line"/>
      <point x="89" y="65" type="line"/>
      <point x="154" y="65" type="line" smooth="yes"/>
      <point x="277" y="65"/>
      <point x="371" y="238"/>
      <point x="371" y="463" type="curve" smooth="yes"/>
      <point x="371" y="581"/>
      <point x="321" y="635"/>
      <point x="241" y="635" type="curve" smooth="yes"/>
      <point x="190" y="635" type="line"/>
    </contour>
  </outline>
</glyph>
<glyph name="Oslash" format="1">
  <advance width="494"/>
  <unicode hex="00D8"/>
  <outline>
    <contour>
      <point x="70" y="67" type="line"/>
      <point x="51" y="107"/>
      <point x="41" y="162"/>
      <point x="41" y="231" type="curve" smooth="yes"/>
      <point x="41" y="459"/>
      <point x="120" y="711"/>
      <point x="292" y="711" type="curve" smooth="yes"/>
      <point x="329" y="711"/>
      <point x="360" y="701"/>
      <point x="384" y="681" type="curve"/>
      <point x="385" y="681"/>
      <point x="420" y="750"/>
      <point x="420" y="750" type="curve"/>
      <point x="480" y="750" type="line"/>
      <point x="421" y="636" type="line"/>
      <point x="443" y="596"/>
      <point x="453" y="541"/>
      <point x="453" y="472" type="curve" smooth="yes"/>
      <point x="452" y="242"/>
      <point x="373" y="-11"/>
      <point x="198" y="-11" type="curve" smooth="yes"/>
      <point x="160" y="-11"/>
      <point x="130" y="-1"/>
      <point x="106" y="19" type="curve"/>
      <point x="106" y="20"/>
      <point x="70" y="-50"/>
      <point x="70" y="-50" type="curve"/>
      <point x="10" y="-50" type="line"/>
    </contour>
    <contour>
      <point x="115" y="154" type="curve"/>
      <point x="350" y="614" type="line"/>
      <point x="334" y="636"/>
      <point x="310" y="646"/>
      <point x="283" y="646" type="curve" smooth="yes"/>
      <point x="163" y="646"/>
      <point x="110" y="406"/>
      <point x="110" y="219" type="curve" smooth="yes"/>
      <point x="110" y="194"/>
      <point x="112" y="173"/>
    </contour>
    <contour>
      <point x="377" y="549" type="curve"/>
      <point x="140" y="86" type="line"/>
      <point x="157" y="64"/>
      <point x="180" y="54"/>
      <point x="209" y="54" type="curve" smooth="yes"/>
      <point x="322" y="54"/>
      <point x="384" y="276"/>
      <point x="384" y="473" type="curve" smooth="yes"/>
      <point x="384" y="502"/>
      <point x="382" y="528"/>
    </contour>
  </outline>
</glyph>
<glyph name="Thorn" format="1">
  <advance width="447"/>
  <unicode hex="00DE"/>
  <outline>
    <contour>
      <point x="419" y="407" type="curve" smooth="yes"/>
      <point x="419" y="235"/>
      <point x="305" y="162"/>
      <point x="189" y="162" type="curve" smooth="yes"/>
      <point x="106" y="162" type="line"/>
      <point x="78" y="0" type="line"/>
      <point x="8" y="0" type="line"/>
      <point x="131" y="700" type="line"/>
      <point x="201" y="700" type="line"/>
      <point x="177" y="560" type="line"/>
      <point x="177" y="560"/>
      <point x="234" y="560"/>
      <point x="269" y="560" type="curve" smooth="yes"/>
      <point x="356" y="560"/>
      <point x="419" y="512"/>
    </contour>
    <contour>
      <point x="349" y="399" type="curve" smooth="yes"/>
      <point x="349" y="463"/>
      <point x="313" y="495"/>
      <point x="251" y="495" type="curve" smooth="yes"/>
      <point x="165" y="495" type="line"/>
      <point x="118" y="227" type="line"/>
      <point x="204" y="227" type="line" smooth="yes"/>
      <point x="291" y="227"/>
      <point x="349" y="294"/>
    </contour>
  </outline>
</glyph>
<glyph name="germandbls" format="1">
  <advance width="446"/>
  <unicode hex="00DF"/>
  <outline>
    <contour>
      <point x="148" y="0" type="curve" smooth="yes"/>
      <point x="136" y="0" type="line"/>
      <point x="147" y="62" type="line"/>
      <point x="162" y="62" type="line" smooth="yes"/>
      <point x="267" y="62"/>
      <point x="318" y="144"/>
      <point x="318" y="269" type="curve" smooth="yes"/>
      <point x="318" y="338"/>
      <point x="277" y="366"/>
      <point x="218" y="366" type="curve" smooth="yes"/>
      <point x="201" y="366" type="line"/>
      <point x="212" y="429" type="line"/>
      <point x="229" y="429" type="line" smooth="yes"/>
      <point x="292" y="429"/>
      <point x="337" y="482"/>
      <point x="337" y="586" type="curve" smooth="yes"/>
      <point x="337" y="635"/>
      <point x="314" y="663"/>
      <point x="270" y="663" type="curve" smooth="yes"/>
      <point x="219" y="663"/>
      <point x="185" y="623"/>
      <point x="171" y="541" type="curve" smooth="yes"/>
      <point x="49" y="-153" type="line"/>
      <point x="-25" y="-193" type="line"/>
      <point x="103" y="535" type="line" smooth="yes"/>
      <point x="125" y="661"/>
      <point x="184" y="726"/>
      <point x="279" y="726" type="curve" smooth="yes"/>
      <point x="362" y="726"/>
      <point x="405" y="674"/>
      <point x="405" y="591" type="curve" smooth="yes"/>
      <point x="405" y="485"/>
      <point x="358" y="427"/>
      <point x="305" y="403" type="curve"/>
      <point x="351" y="390"/>
      <point x="387" y="352"/>
      <point x="387" y="272" type="curve" smooth="yes"/>
      <point x="387" y="88"/>
      <point x="285" y="0"/>
    </contour>
  </outline>
</glyph>
<glyph name="ae" format="1">
  <advance width="641"/>
  <unicode hex="00E6"/>
  <outline>
    <contour>
      <point x="333" y="242" type="line"/>
      <point x="316" y="119"/>
      <point x="348" y="52"/>
      <point x="413" y="52" type="curve" smooth="yes"/>
      <point x="453" y="52"/>
      <point x="485" y="70"/>
      <point x="524" y="111" type="curve"/>
      <point x="558" y="67" type="line"/>
      <point x="509" y="14"/>
      <point x="464" y="-11"/>
      <point x="402" y="-11" type="curve" smooth="yes"/>
      <point x="344" y="-11"/>
      <point x="305" y="18"/>
      <point x="283" y="67" type="curve"/>
      <point x="237" y="18"/>
      <point x="184" y="-11"/>
      <point x="128" y="-11" type="curve" smooth="yes"/>
      <point x="55" y="-11"/>
      <point x="1" y="48"/>
      <point x="1" y="134" type="curve" smooth="yes"/>
      <point x="1" y="273"/>
      <point x="100" y="329"/>
      <point x="190" y="329" type="curve" smooth="yes"/>
      <point x="224" y="329"/>
      <point x="257" y="319"/>
      <point x="279" y="304" type="curve"/>
      <point x="292" y="382" type="line" smooth="yes"/>
      <point x="294" y="393"/>
      <point x="295" y="405"/>
      <point x="295" y="414" type="curve" smooth="yes"/>
      <point x="295" y="455"/>
      <point x="275" y="474"/>
      <point x="231" y="474" type="curve" smooth="yes"/>
      <point x="193" y="474"/>
      <point x="150" y="457"/>
      <point x="114" y="429" type="curve"/>
      <point x="92" y="483" type="line"/>
      <point x="138" y="514"/>
      <point x="192" y="536"/>
      <point x="245" y="536" type="curve" smooth="yes"/>
      <point x="316" y="536"/>
      <point x="346" y="514"/>
      <point x="355" y="475" type="curve"/>
      <point x="374" y="505"/>
      <point x="418" y="536"/>
      <point x="471" y="536" type="curve" smooth="yes"/>
      <point x="578" y="536"/>
      <point x="606" y="437"/>
      <point x="606" y="346" type="curve" smooth="yes"/>
      <point x="606" y="303"/>
      <point x="598" y="250"/>
      <point x="596" y="242" type="curve"/>
    </contour>
    <contour>
      <point x="539" y="300" type="line"/>
      <point x="546" y="401"/>
      <point x="528" y="473"/>
      <point x="463" y="473" type="curve" smooth="yes"/>
      <point x="408" y="473"/>
      <point x="361" y="416"/>
      <point x="341" y="300" type="curve"/>
    </contour>
    <contour>
      <point x="266" y="122" type="curve"/>
      <point x="264" y="135"/>
      <point x="263" y="151"/>
      <point x="263" y="168" type="curve" smooth="yes"/>
      <point x="263" y="192"/>
      <point x="265" y="218"/>
      <point x="269" y="246" type="curve"/>
      <point x="247" y="261"/>
      <point x="217" y="269"/>
      <point x="187" y="269" type="curve" smooth="yes"/>
      <point x="120" y="269"/>
      <point x="69" y="223"/>
      <point x="69" y="138" type="curve" smooth="yes"/>
      <point x="69" y="73"/>
      <point x="104" y="49"/>
      <point x="151" y="49" type="curve" smooth="yes"/>
      <point x="181" y="49"/>
      <point x="232" y="74"/>
    </contour>
  </outline>
</glyph>
<glyph name="ccedilla" format="1">
  <advance width="375"/>
  <unicode hex="00E7"/>
  <outline>
    <contour>
      <point x="139" y="-8" type="curve"/>
      <point x="70" y="5"/>
      <point x="25" y="70"/>
      <point x="25" y="182" type="curve" smooth="yes"/>
      <point x="25" y="412"/>
      <point x="131" y="536"/>
      <point x="241" y="536" type="curve" smooth="yes"/>
      <point x="308" y="536"/>
      <point x="347" y="496"/>
      <point x="369" y="445" type="curve"/>
      <point x="312" y="404" type="line"/>
      <point x="293" y="446"/>
      <point x="274" y="473"/>
      <point x="232" y="473" type="curve" smooth="yes"/>
      <point x="161" y="473"/>
      <point x="95" y="364"/>
      <point x="95" y="192" type="curve" smooth="yes"/>
      <point x="95" y="106"/>
      <point x="120" y="52"/>
      <point x="176" y="52" type="curve" smooth="yes"/>
      <point x="215" y="52"/>
      <point x="244" y="76"/>
      <point x="276" y="120" type="curve"/>
      <point x="318" y="82" type="line"/>
      <point x="277" y="27"/>
      <point x="235" y="-7"/>
      <point x="177" y="-11" type="curve"/>
      <point x="156" y="-52" type="line"/>
      <point x="167" y="-45"/>
      <point x="178" y="-41"/>
      <point x="197" y="-41" type="curve" smooth="yes"/>
      <point x="227" y="-41"/>
      <point x="250" y="-62"/>
      <point x="250" y="-104" type="curve" smooth="yes"/>
      <point x="250" y="-164"/>
      <point x="191" y="-193"/>
      <point x="136" y="-193" type="curve" smooth="yes"/>
      <point x="105" y="-193"/>
      <point x="71" y="-181"/>
      <point x="47" y="-161" type="curve"/>
      <point x="69" y="-132" type="line"/>
      <point x="90" y="-148"/>
      <point x="114" y="-156"/>
      <point x="137" y="-156" type="curve" smooth="yes"/>
      <point x="173" y="-156"/>
      <point x="197" y="-138"/>
      <point x="197" y="-109" type="curve" smooth="yes"/>
      <point x="197" y="-89"/>
      <point x="187" y="-79"/>
      <point x="169" y="-79" type="curve" smooth="yes"/>
      <point x="155" y="-79"/>
      <point x="145" y="-83"/>
      <point x="134" y="-93" type="curve"/>
      <point x="103" y="-79" type="line"/>
      <point x="103" y="-79"/>
      <point x="140" y="-9"/>
    </contour>
  </outline>
</glyph>
<glyph name="eth" format="1">
  <advance width="449"/>
  <unicode hex="00F0"/>
  <outline>
    <contour>
      <point x="164" y="-11" type="curve" smooth="yes"/>
      <point x="78" y="-11"/>
      <point x="23" y="54"/>
      <point x="23" y="163" type="curve" smooth="yes"/>
      <point x="23" y="347"/>
      <point x="130" y="483"/>
      <point x="241" y="483" type="curve" smooth="yes"/>
      <point x="306" y="483"/>
      <point x="338" y="454"/>
      <point x="356" y="405" type="curve"/>
      <point x="356" y="480"/>
      <point x="341" y="542"/>
      <point x="305" y="585" type="curve"/>
      <point x="245" y="530" type="line"/>
      <point x="207" y="569" type="line"/>
      <point x="264" y="622" type="line"/>
      <point x="244" y="634"/>
      <point x="221" y="643"/>
      <point x="195" y="648" type="curve"/>
      <point x="206" y="711" type="line"/>
      <point x="247" y="705"/>
      <point x="283" y="691"/>
      <point x="314" y="669" type="curve"/>
      <point x="359" y="711" type="line"/>
      <point x="397" y="672" type="line"/>
      <point x="353" y="630" type="line"/>
      <point x="390" y="583"/>
      <point x="411" y="516"/>
      <point x="411" y="425" type="curve" smooth="yes"/>
      <point x="411" y="152"/>
      <point x="302" y="-11"/>
    </contour>
    <contour>
      <point x="325" y="302" type="curve" smooth="yes"/>
      <point x="325" y="380"/>
      <point x="293" y="420"/>
      <point x="237" y="420" type="curve" smooth="yes"/>
      <point x="154" y="420"/>
      <point x="92" y="303"/>
      <point x="92" y="167" type="curve" smooth="yes"/>
      <point x="92" y="92"/>
      <point x="124" y="52"/>
      <point x="176" y="52" type="curve" smooth="yes"/>
      <point x="256" y="52"/>
      <point x="325" y="155"/>
    </contour>
  </outline>
</glyph>
<glyph name="oslash" format="1">
  <advance width="444"/>
  <unicode hex="00F8"/>
  <outline>
    <contour>
      <point x="60" y="44" type="line"/>
      <point x="38" y="76"/>
      <point x="26" y="121"/>
      <point x="26" y="180" type="curve" smooth="yes"/>
      <point x="26" y="402"/>
      <point x="121" y="536"/>
      <point x="248" y="536" type="curve" smooth="yes"/>
      <point x="275" y="536"/>
      <point x="299" y="530"/>
      <point x="319" y="518" type="curve"/>
      <point x="351" y="575" type="line"/>
      <point x="411" y="575" type="line"/>
      <point x="359" y="480" type="line"/>
      <point x="380" y="447"/>
      <point x="392" y="400"/>
      <point x="392" y="340" type="curve" smooth="yes"/>
      <point x="392" y="129"/>
      <point x="294" y="-11"/>
      <point x="171" y="-11" type="curve" smooth="yes"/>
      <point x="144" y="-11"/>
      <point x="120" y="-5"/>
      <point x="99" y="7" type="curve"/>
      <point x="68" y="-50" type="line"/>
      <point x="8" y="-50" type="line"/>
    </contour>
    <contour>
      <point x="102" y="121" type="curve"/>
      <point x="286" y="457" type="line"/>
      <point x="273" y="468"/>
      <point x="256" y="473"/>
      <point x="237" y="473" type="curve" smooth="yes"/>
      <point x="154" y="473"/>
      <point x="95" y="351"/>
      <point x="95" y="183" type="curve" smooth="yes"/>
      <point x="95" y="159"/>
      <point x="97" y="138"/>
    </contour>
    <contour>
      <point x="316" y="402" type="curve"/>
      <point x="133" y="68" type="line"/>
      <point x="146" y="57"/>
      <point x="162" y="52"/>
      <point x="181" y="52" type="curve" smooth="yes"/>
      <point x="262" y="52"/>
      <point x="323" y="171"/>
      <point x="323" y="333" type="curve" smooth="yes"/>
      <point x="323" y="360"/>
      <point x="321" y="383"/>
    </contour>
  </outline>
</glyph>
<glyph name="thorn" format="1">
  <advance width="444"/>
  <unicode hex="00FE"/>
  <outline>
    <contour>
      <point x="177" y="-11" type="curve" smooth="yes"/>
      <point x="131" y="-11"/>
      <point x="104" y="10"/>
      <point x="83" y="40" type="curve"/>
      <point x="49" y="-153" type="line"/>
      <point x="-26" y="-193" type="line"/>
      <point x="129" y="689" type="line"/>
      <point x="205" y="729" type="line"/>
      <point x="161" y="480" type="line"/>
      <point x="191" y="510"/>
      <point x="229" y="536"/>
      <point x="278" y="536" type="curve" smooth="yes"/>
      <point x="354" y="536"/>
      <point x="392" y="478"/>
      <point x="392" y="366" type="curve" smooth="yes"/>
      <point x="392" y="144"/>
      <point x="295" y="-11"/>
    </contour>
    <contour>
      <point x="324" y="358" type="curve" smooth="yes"/>
      <point x="324" y="436"/>
      <point x="300" y="474"/>
      <point x="252" y="474" type="curve" smooth="yes"/>
      <point x="214" y="474"/>
      <point x="181" y="453"/>
      <point x="150" y="422" type="curve"/>
      <point x="95" y="105" type="line"/>
      <point x="115" y="71"/>
      <point x="141" y="51"/>
      <point x="184" y="51" type="curve" smooth="yes"/>
      <point x="268" y="51"/>
      <point x="324" y="205"/>
    </contour>
  </outline>
</glyph>
<glyph name="dotlessi" format="1">
  <advance width="212"/>
  <unicode hex="0131"/>
  <outline>
    <contour>
      <point x="79" y="0" type="line"/>
      <point x="11" y="0" type="line"/>
      <point x="104" y="525" type="line"/>
      <point x="172" y="525" type="line"/>
    </contour>
  </outline>
</glyph>
<glyph name="Lslash" format="1">
  <advance width="355"/>
  <unicode hex="0141"/>
  <outline>
    <contour>
      <point x="72" y="368" type="line"/>
      <point x="131" y="700" type="line"/>
      <point x="201" y="700" type="line"/>
      <point x="148" y="400" type="line"/>
      <point x="265" y="471" type="line"/>
      <point x="252" y="396" type="line"/>
      <point x="135" y="324" type="line"/>
      <point x="89" y="65" type="line"/>
      <point x="307" y="65" type="line"/>
      <point x="296" y="0" type="line"/>
      <point x="8" y="0" type="line"/>
      <point x="59" y="292" type="line"/>
      <point x="7" y="260" type="line"/>
      <point x="20" y="336" type="line"/>
    </contour>
  </outline>
</glyph>
<glyph name="lslash" format="1">
  <advance width="212"/>
  <unicode hex="0142"/>
  <outline>
    <contour>
      <point x="79" y="383" type="line"/>
      <point x="132" y="689" type="line"/>
      <point x="208" y="729" type="line"/>
      <point x="152" y="412" type="line"/>
      <point x="152" y="413"/>
      <point x="207" y="447"/>
      <point x="207" y="447" type="curve"/>
      <point x="193" y="367" type="line"/>
      <point x="138" y="332" type="line"/>
      <point x="79" y="0" type="line"/>
      <point x="11" y="0" type="line"/>
      <point x="65" y="303" type="line"/>
      <point x="10" y="269" type="line"/>
      <point x="24" y="349" type="line"/>
    </contour>
  </outline>
</glyph>
<glyph name="OE" format="1">
  <advance width="697"/>
  <unicode hex="0152"/>
  <outline>
    <contour>
      <point x="426" y="611" type="curve"/>
      <point x="442" y="700" type="line"/>
      <point x="726" y="700" type="line"/>
      <point x="715" y="635" type="line"/>
      <point x="491" y="635" type="line"/>
      <point x="451" y="407" type="line"/>
      <point x="595" y="407" type="line"/>
      <point x="583" y="341" type="line"/>
      <point x="439" y="341" type="line"/>
      <point x="390" y="65" type="line"/>
      <point x="626" y="65" type="line"/>
      <point x="615" y="0" type="line"/>
      <point x="319" y="0" type="line"/>
      <point x="334" y="76" type="line"/>
      <point x="307" y="30"/>
      <point x="265" y="-11"/>
      <point x="198" y="-11" type="curve" smooth="yes"/>
      <point x="90" y="-11"/>
      <point x="41" y="74"/>
      <point x="41" y="231" type="curve" smooth="yes"/>
      <point x="41" y="459"/>
      <point x="120" y="711"/>
      <point x="292" y="711" type="curve" smooth="yes"/>
      <point x="364" y="711"/>
      <point x="410" y="663"/>
    </contour>
    <contour>
      <point x="384" y="473" type="curve" smooth="yes"/>
      <point x="384" y="593"/>
      <point x="345" y="646"/>
      <point x="283" y="646" type="curve" smooth="yes"/>
      <point x="164" y="646"/>
      <point x="110" y="406"/>
      <point x="110" y="219" type="curve" smooth="yes"/>
      <point x="110" y="98"/>
      <point x="146" y="54"/>
      <point x="206" y="54" type="curve" smooth="yes"/>
      <point x="317" y="54"/>
      <point x="384" y="276"/>
    </contour>
  </outline>
</glyph>
<glyph name="oe" format="1">
  <advance width="693"/>
  <unicode hex="0153"/>
  <outline>
    <contour>
      <point x="657" y="346" type="curve" smooth="yes"/>
      <point x="657" y="303"/>
      <point x="649" y="247"/>
      <point x="647" y="239" type="curve"/>
      <point x="383" y="239" type="line"/>
      <point x="381" y="217"/>
      <point x="380" y="197"/>
      <point x="380" y="178" type="curve" smooth="yes"/>
      <point x="380" y="95"/>
      <point x="411" y="52"/>
      <point x="463" y="52" type="curve" smooth="yes"/>
      <point x="505" y="52"/>
      <point x="536" y="70"/>
      <point x="575" y="111" type="curve"/>
      <point x="609" y="67" type="line"/>
      <point x="560" y="14"/>
      <point x="513" y="-11"/>
      <point x="451" y="-11" type="curve" smooth="yes"/>
      <point x="392" y="-11"/>
      <point x="340" y="40"/>
      <point x="326" y="88" type="curve"/>
      <point x="293" y="32"/>
      <point x="244" y="-11"/>
      <point x="171" y="-11" type="curve" smooth="yes"/>
      <point x="81" y="-11"/>
      <point x="26" y="54"/>
      <point x="26" y="180" type="curve" smooth="yes"/>
      <point x="26" y="399"/>
      <point x="122" y="536"/>
      <point x="248" y="536" type="curve" smooth="yes"/>
      <point x="309" y="536"/>
      <point x="356" y="501"/>
      <point x="376" y="444" type="curve"/>
      <point x="413" y="500"/>
      <point x="465" y="536"/>
      <point x="522" y="536" type="curve" smooth="yes"/>
      <point x="629" y="536"/>
      <point x="657" y="437"/>
    </contour>
    <contour>
      <point x="590" y="300" type="line"/>
      <point x="597" y="401"/>
      <point x="579" y="473"/>
      <point x="514" y="473" type="curve" smooth="yes"/>
      <point x="459" y="473"/>
      <point x="412" y="416"/>
      <point x="392" y="300" type="curve"/>
    </contour>
    <contour>
      <point x="323" y="333" type="curve" smooth="yes"/>
      <point x="323" y="431"/>
      <point x="293" y="473"/>
      <point x="237" y="473" type="curve" smooth="yes"/>
      <point x="153" y="473"/>
      <point x="95" y="347"/>
      <point x="95" y="183" type="curve" smooth="yes"/>
      <point x="95" y="95"/>
      <point x="127" y="52"/>
      <point x="181" y="52" type="curve" smooth="yes"/>
      <point x="260" y="52"/>
      <point x="323" y="171"/>
    </contour>
  </outline>
</glyph>
<glyph name="florin" format="1">
  <advance width="304"/>
  <unicode hex="0192"/>
  <outline>
    <contour>
      <point x="330" y="641" type="line"/>
      <point x="317" y="646"/>
      <point x="294" y="650"/>
      <point x="276" y="650" type="curve" smooth="yes"/>
      <point x="245" y="650"/>
      <point x="224" y="635"/>
      <point x="217" y="596" type="curve" smooth="yes"/>
      <point x="205" y="525" type="line"/>
      <point x="292" y="525" type="line"/>
      <point x="281" y="466" type="line"/>
      <point x="194" y="466" type="line"/>
      <point x="85" y="-154" type="line"/>
      <point x="12" y="-192" type="line"/>
      <point x="128" y="466" type="line"/>
      <point x="74" y="466" type="line"/>
      <point x="85" y="525" type="line"/>
      <point x="139" y="525" type="line"/>
      <point x="151" y="593" type="line" smooth="yes"/>
      <point x="165" y="675"/>
      <point x="214" y="711"/>
      <point x="279" y="711" type="curve" smooth="yes"/>
      <point x="304" y="711"/>
      <point x="327" y="708"/>
      <point x="341" y="703" type="curve"/>
    </contour>
  </outline>
</glyph>
<glyph name="circumflex" format="1">
  <advance width="395"/>
  <unicode hex="02C6"/>
  <outline>
    <contour>
      <point x="384" y="595" type="line"/>
      <point x="326" y="595" type="line"/>
      <point x="270" y="693" type="line"/>
      <point x="175" y="595" type="line"/>
      <point x="116" y="595" type="line"/>
      <point x="246" y="755" type="line"/>
      <point x="311" y="755" type="line"/>
    </contour>
  </outline>
</glyph>
<glyph name="caron" format="1">
  <advance width="395"/>
  <unicode hex="02C7"/>
  <outline>
    <contour>
      <point x="414" y="755" type="line"/>
      <point x="285" y="595" type="line"/>
      <point x="220" y="595" type="line"/>
      <point x="146" y="755" type="line"/>
      <point x="205" y="755" type="line"/>
      <point x="263" y="655" type="line"/>
      <point x="358" y="755" type="line"/>
    </contour>
  </outline>
</glyph>
<glyph name="breve" format="1">
  <advance width="395"/>
  <unicode hex="02D8"/>
  <outline>
    <contour>
      <point x="417" y="740" type="line"/>
      <point x="397" y="649"/>
      <point x="341" y="595"/>
      <point x="256" y="595" type="curve" smooth="yes"/>
      <point x="177" y="595"/>
      <point x="130" y="649"/>
      <point x="142" y="740" type="curve"/>
      <point x="197" y="740" type="line"/>
      <point x="190" y="677"/>
      <point x="212" y="646"/>
      <point x="264" y="646" type="curve" smooth="yes"/>
      <point x="311" y="646"/>
      <point x="347" y="675"/>
      <point x="363" y="740" type="curve"/>
    </contour>
  </outline>
</glyph>
<glyph name="dotaccent" format="1">
  <advance width="395"/>
  <unicode hex="02D9"/>
  <outline>
    <contour>
      <point x="316" y="654" type="curve" smooth="yes"/>
      <point x="316" y="626"/>
      <point x="293" y="603"/>
      <point x="266" y="603" type="curve" smooth="yes"/>
      <point x="238" y="603"/>
      <point x="215" y="626"/>
      <point x="215" y="654" type="curve" smooth="yes"/>
      <point x="215" y="681"/>
      <point x="238" y="705"/>
      <point x="266" y="705" type="curve" smooth="yes"/>
      <point x="293" y="705"/>
      <point x="316" y="681"/>
    </contour>
  </outline>
</glyph>
<glyph name="ring" format="1">
  <advance width="395"/>
  <unicode hex="02DA"/>
  <outline>
    <contour>
      <point x="366" y="702" type="curve" smooth="yes"/>
      <point x="366" y="645"/>
      <point x="323" y="599"/>
      <point x="263" y="599" type="curve" smooth="yes"/>
      <point x="204" y="599"/>
      <point x="161" y="645"/>
      <point x="161" y="702" type="curve" smooth="yes"/>
      <point x="161" y="759"/>
      <point x="204" y="803"/>
      <point x="263" y="803" type="curve" smooth="yes"/>
      <point x="323" y="803"/>
      <point x="366" y="759"/>
    </contour>
    <contour>
      <point x="321" y="702" type="curve" smooth="yes"/>
      <point x="321" y="735"/>
      <point x="298" y="760"/>
      <point x="263" y="760" type="curve" smooth="yes"/>
      <point x="228" y="760"/>
      <point x="206" y="735"/>
      <point x="206" y="702" type="curve" smooth="yes"/>
      <point x="206" y="667"/>
      <point x="228" y="642"/>
      <point x="263" y="642" type="curve" smooth="yes"/>
      <point x="298" y="642"/>
      <point x="321" y="667"/>
    </contour>
  </outline>
</glyph>
<glyph name="ogonek" format="1">
  <advance width="395"/>
  <unicode hex="02DB"/>
  <outline>
    <contour>
      <point x="237" y="-154" type="line"/>
      <point x="202" y="-180"/>
      <point x="170" y="-193"/>
      <point x="136" y="-193" type="curve" smooth="yes"/>
      <point x="92" y="-193"/>
      <point x="63" y="-168"/>
      <point x="63" y="-129" type="curve" smooth="yes"/>
      <point x="63" y="-81"/>
      <point x="104" y="-37"/>
      <point x="154" y="0" type="curve"/>
      <point x="195" y="0" type="line"/>
      <point x="148" y="-42"/>
      <point x="123" y="-74"/>
      <point x="123" y="-110" type="curve" smooth="yes"/>
      <point x="123" y="-133"/>
      <point x="137" y="-148"/>
      <point x="158" y="-148" type="curve" smooth="yes"/>
      <point x="181" y="-148"/>
      <point x="201" y="-141"/>
      <point x="225" y="-126" type="curve"/>
    </contour>
  </outline>
</glyph>
<glyph name="tilde" format="1">
  <advance width="395"/>
  <unicode hex="02DC"/>
  <outline>
    <contour>
      <point x="408" y="716" type="line"/>
      <point x="394" y="636"/>
      <point x="353" y="596"/>
      <point x="309" y="596" type="curve" smooth="yes"/>
      <point x="288" y="596"/>
      <point x="268" y="605"/>
      <point x="250" y="622" type="curve" smooth="yes"/>
      <point x="215" y="655"/>
      <point x="210" y="662"/>
      <point x="193" y="662" type="curve" smooth="yes"/>
      <point x="178" y="662"/>
      <point x="163" y="649"/>
      <point x="150" y="601" type="curve"/>
      <point x="98" y="601" type="line"/>
      <point x="112" y="682"/>
      <point x="156" y="720"/>
      <point x="200" y="720" type="curve" smooth="yes"/>
      <point x="221" y="720"/>
      <point x="241" y="714"/>
      <point x="258" y="696" type="curve" smooth="yes"/>
      <point x="291" y="663"/>
      <point x="299" y="655"/>
      <point x="314" y="655" type="curve" smooth="yes"/>
      <point x="331" y="655"/>
      <point x="345" y="674"/>
      <point x="356" y="716" type="curve"/>
    </contour>
  </outline>
</glyph>
<glyph name="hungarumlaut" format="1">
  <advance width="395"/>
  <unicode hex="02DD"/>
  <outline>
    <contour>
      <point x="496" y="755" type="line"/>
      <point x="344" y="595" type="line"/>
      <point x="297" y="595" type="line"/>
      <point x="408" y="755" type="line"/>
    </contour>
    <contour>
      <point x="355" y="755" type="line"/>
      <point x="203" y="595" type="line"/>
      <point x="155" y="595" type="line"/>
      <point x="266" y="755" type="line"/>
    </contour>
  </outline>
</glyph>
<glyph name="endash" format="1">
  <advance width="336"/>
  <unicode hex="2013"/>
  <outline>
    <contour>
      <point x="298" y="333" type="line"/>
      <point x="42" y="333" type="line"/>
      <point x="53" y="398" type="line"/>
      <point x="309" y="398" type="line"/>
    </contour>
  </outline>
</glyph>
<glyph name="emdash" format="1">
  <advance width="445"/>
  <unicode hex="2014"/>
  <outline>
    <contour>
      <point x="408" y="333" type="line"/>
      <point x="42" y="333" type="line"/>
      <point x="53" y="398" type="line"/>
      <point x="419" y="398" type="line"/>
    </contour>
  </outline>
</glyph>
<glyph name="quoteleft" format="1">
  <advance width="195"/>
  <unicode hex="2018"/>
  <unicode hex="02BB"/>
  <outline>
    <contour>
      <point x="203" y="700" type="line"/>
      <point x="159" y="512" type="line"/>
      <point x="76" y="512" type="line"/>
      <point x="161" y="700" type="line"/>
    </contour>
  </outline>
</glyph>
<glyph name="quoteright" format="1">
  <advance width="195"/>
  <unicode hex="2019"/>
  <unicode hex="02BC"/>
  <outline>
    <contour>
      <point x="202" y="700" type="line"/>
      <point x="117" y="512" type="line"/>
      <point x="75" y="512" type="line"/>
      <point x="119" y="700" type="line"/>
    </contour>
  </outline>
</glyph>
<glyph name="quotesinglbase" format="1">
  <advance width="195"/>
  <unicode hex="201A"/>
  <outline>
    <contour>
      <point x="103" y="88" type="line"/>
      <point x="18" y="-99" type="line"/>
      <point x="-25" y="-99" type="line"/>
      <point x="20" y="88" type="line"/>
    </contour>
  </outline>
</glyph>
<glyph name="quotedblleft" format="1">
  <advance width="338"/>
  <unicode hex="201C"/>
  <outline>
    <contour>
      <point x="346" y="700" type="line"/>
      <point x="302" y="512" type="line"/>
      <point x="219" y="512" type="line"/>
      <point x="304" y="700" type="line"/>
    </contour>
    <contour>
      <point x="203" y="700" type="line"/>
      <point x="159" y="512" type="line"/>
      <point x="76" y="512" type="line"/>
      <point x="161" y="700" type="line"/>
    </contour>
  </outline>
</glyph>
<glyph name="quotedblright" format="1">
  <advance width="338"/>
  <unicode hex="201D"/>
  <outline>
    <contour>
      <point x="355" y="700" type="line"/>
      <point x="270" y="512" type="line"/>
      <point x="228" y="512" type="line"/>
      <point x="273" y="700" type="line"/>
    </contour>
    <contour>
      <point x="202" y="700" type="line"/>
      <point x="117" y="512" type="line"/>
      <point x="75" y="512" type="line"/>
      <point x="119" y="700" type="line"/>
    </contour>
  </outline>
</glyph>
<glyph name="quotedblbase" format="1">
  <advance width="358"/>
  <unicode hex="201E"/>
  <outline>
    <contour>
      <point x="266" y="88" type="line"/>
      <point x="181" y="-99" type="line"/>
      <point x="138" y="-99" type="line"/>
      <point x="183" y="88" type="line"/>
    </contour>
    <contour>
      <point x="103" y="88" type="line"/>
      <point x="18" y="-99" type="line"/>
      <point x="-25" y="-99" type="line"/>
      <point x="20" y="88" type="line"/>
    </contour>
  </outline>
</glyph>
<glyph name="dagger" format="1">
  <advance width="430"/>
  <unicode hex="2020"/>
  <outline>
    <contour>
      <point x="387" y="402" type="line"/>
      <point x="241" y="402" type="line"/>
      <point x="152" y="-100" type="line"/>
      <point x="90" y="-100" type="line"/>
      <point x="179" y="402" type="line"/>
      <point x="33" y="402" type="line"/>
      <point x="43" y="461" type="line"/>
      <point x="189" y="461" type="line"/>
      <point x="231" y="700" type="line"/>
      <point x="293" y="700" type="line"/>
      <point x="251" y="461" type="line"/>
      <point x="397" y="461" type="line"/>
    </contour>
  </outline>
</glyph>
<glyph name="daggerdbl" format="1">
  <advance width="430"/>
  <unicode hex="2021"/>
  <outline>
    <contour>
      <point x="341" y="139" type="line"/>
      <point x="195" y="139" type="line"/>
      <point x="152" y="-100" type="line"/>
      <point x="90" y="-100" type="line"/>
      <point x="133" y="139" type="line"/>
      <point x="-13" y="139" type="line"/>
      <point x="-3" y="198" type="line"/>
      <point x="143" y="198" type="line"/>
      <point x="179" y="402" type="line"/>
      <point x="33" y="402" type="line"/>
      <point x="43" y="461" type="line"/>
      <point x="189" y="461" type="line"/>
      <point x="231" y="700" type="line"/>
      <point x="293" y="700" type="line"/>
      <point x="251" y="461" type="line"/>
      <point x="397" y="461" type="line"/>
      <point x="387" y="402" type="line"/>
      <point x="241" y="402" type="line"/>
      <point x="205" y="198" type="line"/>
      <point x="351" y="198" type="line"/>
    </contour>
  </outline>
</glyph>
<glyph name="ellipsis" format="1">
  <advance width="549"/>
  <unicode hex="2026"/>
  <outline>
    <contour>
      <point x="466" y="41" type="curve" smooth="yes"/>
      <point x="466" y="12"/>
      <point x="445" y="-11"/>
      <point x="415" y="-11" type="curve" smooth="yes"/>
      <point x="386" y="-11"/>
      <point x="364" y="12"/>
      <point x="364" y="41" type="curve" smooth="yes"/>
      <point x="364" y="70"/>
      <point x="386" y="94"/>
      <point x="415" y="94" type="curve" smooth="yes"/>
      <point x="445" y="94"/>
      <point x="466" y="70"/>
    </contour>
    <contour>
      <point x="283" y="41" type="curve" smooth="yes"/>
      <point x="283" y="12"/>
      <point x="262" y="-11"/>
      <point x="232" y="-11" type="curve" smooth="yes"/>
      <point x="203" y="-11"/>
      <point x="181" y="12"/>
      <point x="181" y="41" type="curve" smooth="yes"/>
      <point x="181" y="70"/>
      <point x="203" y="94"/>
      <point x="232" y="94" type="curve" smooth="yes"/>
      <point x="262" y="94"/>
      <point x="283" y="70"/>
    </contour>
    <contour>
      <point x="100" y="41" type="curve" smooth="yes"/>
      <point x="100" y="12"/>
      <point x="79" y="-11"/>
      <point x="49" y="-11" type="curve" smooth="yes"/>
      <point x="20" y="-11"/>
      <point x="-2" y="12"/>
      <point x="-2" y="41" type="curve" smooth="yes"/>
      <point x="-2" y="70"/>
      <point x="20" y="94"/>
      <point x="49" y="94" type="curve" smooth="yes"/>
      <point x="79" y="94"/>
      <point x="100" y="70"/>
    </contour>
  </outline>
</glyph>
<glyph name="perthousand" format="1">
  <advance width="1072"/>
  <unicode hex="2030"/>
  <outline>
    <contour>
      <point x="161" y="275" type="curve" smooth="yes"/>
      <point x="94" y="275"/>
      <point x="56" y="331"/>
      <point x="56" y="436" type="curve" smooth="yes"/>
      <point x="56" y="601"/>
      <point x="118" y="711"/>
      <point x="207" y="711" type="curve" smooth="yes"/>
      <point x="277" y="711"/>
      <point x="313" y="653"/>
      <point x="313" y="548" type="curve" smooth="yes"/>
      <point x="313" y="384"/>
      <point x="248" y="275"/>
    </contour>
    <contour>
      <point x="632" y="700" type="line"/>
      <point x="189" y="0" type="line"/>
      <point x="125" y="0" type="line"/>
      <point x="567" y="700" type="line"/>
    </contour>
    <contour>
      <point x="863" y="-11" type="curve" smooth="yes"/>
      <point x="796" y="-11"/>
      <point x="758" y="45"/>
      <point x="758" y="150" type="curve" smooth="yes"/>
      <point x="758" y="315"/>
      <point x="820" y="425"/>
      <point x="909" y="425" type="curve" smooth="yes"/>
      <point x="979" y="425"/>
      <point x="1015" y="367"/>
      <point x="1015" y="262" type="curve" smooth="yes"/>
      <point x="1015" y="98"/>
      <point x="950" y="-11"/>
    </contour>
    <contour>
      <point x="549" y="-11" type="curve" smooth="yes"/>
      <point x="482" y="-11"/>
      <point x="444" y="45"/>
      <point x="444" y="150" type="curve" smooth="yes"/>
      <point x="444" y="315"/>
      <point x="506" y="425"/>
      <point x="595" y="425" type="curve" smooth="yes"/>
      <point x="665" y="425"/>
      <point x="701" y="367"/>
      <point x="701" y="262" type="curve" smooth="yes"/>
      <point x="701" y="98"/>
      <point x="636" y="-11"/>
    </contour>
    <contour>
      <point x="251" y="545" type="curve" smooth="yes"/>
      <point x="251" y="616"/>
      <point x="234" y="653"/>
      <point x="199" y="653" type="curve" smooth="yes"/>
      <point x="152" y="653"/>
      <point x="118" y="562"/>
      <point x="118" y="439" type="curve" smooth="yes"/>
      <point x="118" y="369"/>
      <point x="135" y="333"/>
      <point x="169" y="333" type="curve" smooth="yes"/>
      <point x="217" y="333"/>
      <point x="251" y="426"/>
    </contour>
    <contour>
      <point x="953" y="259" type="curve" smooth="yes"/>
      <point x="953" y="330"/>
      <point x="936" y="367"/>
      <point x="901" y="367" type="curve" smooth="yes"/>
      <point x="854" y="367"/>
      <point x="820" y="276"/>
      <point x="820" y="153" type="curve" smooth="yes"/>
      <point x="820" y="83"/>
      <point x="837" y="47"/>
      <point x="871" y="47" type="curve" smooth="yes"/>
      <point x="919" y="47"/>
      <point x="953" y="140"/>
    </contour>
    <contour>
      <point x="639" y="259" type="curve" smooth="yes"/>
      <point x="639" y="330"/>
      <point x="622" y="367"/>
      <point x="587" y="367" type="curve" smooth="yes"/>
      <point x="540" y="367"/>
      <point x="506" y="276"/>
      <point x="506" y="153" type="curve" smooth="yes"/>
      <point x="506" y="83"/>
      <point x="523" y="47"/>
      <point x="557" y="47" type="curve" smooth="yes"/>
      <point x="605" y="47"/>
      <point x="639" y="140"/>
    </contour>
  </outline>
</glyph>
<glyph name="guilsinglleft" format="1">
  <advance width="286"/>
  <unicode hex="2039"/>
  <outline>
    <contour>
      <point x="202" y="0" type="line"/>
      <point x="129" y="0" type="line"/>
      <point x="15" y="262" type="line"/>
      <point x="222" y="525" type="line"/>
      <point x="295" y="525" type="line"/>
      <point x="89" y="263" type="line"/>
    </contour>
  </outline>
</glyph>
<glyph name="guilsinglright" format="1">
  <advance width="286"/>
  <unicode hex="203A"/>
  <outline>
    <contour>
      <point x="252" y="263" type="line"/>
      <point x="46" y="0" type="line"/>
      <point x="-27" y="0" type="line"/>
      <point x="179" y="262" type="line"/>
      <point x="66" y="525" type="line"/>
      <point x="139" y="525" type="line"/>
    </contour>
  </outline>
</glyph>
<glyph name="fraction" format="1">
  <advance width="383"/>
  <unicode hex="2044"/>
  <outline>
    <contour>
      <point x="486" y="700" type="line"/>
      <point x="-31" y="0" type="line"/>
      <point x="-103" y="0" type="line"/>
      <point x="414" y="700" type="line"/>
    </contour>
  </outline>
</glyph>
<glyph name="Euro" format="1">
  <advance width="438"/>
  <unicode hex="20AC"/>
  <outline>
    <contour>
      <point x="128" y="252" type="line"/>
      <point x="118" y="118"/>
      <point x="151" y="54"/>
      <point x="213" y="54" type="curve" smooth="yes"/>
      <point x="263" y="54"/>
      <point x="302" y="88"/>
      <point x="341" y="164" type="curve"/>
      <point x="391" y="137" type="line"/>
      <point x="345" y="48"/>
      <point x="290" y="-11"/>
      <point x="203" y="-11" type="curve" smooth="yes"/>
      <point x="108" y="-11"/>
      <point x="59" y="64"/>
      <point x="59" y="205" type="curve" smooth="yes"/>
      <point x="59" y="483"/>
      <point x="171" y="711"/>
      <point x="322" y="711" type="curve" smooth="yes"/>
      <point x="405" y="711"/>
      <point x="448" y="656"/>
      <point x="464" y="561" type="curve"/>
      <point x="399" y="533" type="line"/>
      <point x="383" y="617"/>
      <point x="359" y="646"/>
      <point x="311" y="646" type="curve" smooth="yes"/>
      <point x="251" y="646"/>
      <point x="201" y="583"/>
      <point x="165" y="457" type="curve"/>
      <point x="358" y="457" type="line"/>
      <point x="347" y="397" type="line"/>
      <point x="150" y="397" type="line"/>
      <point x="143" y="370"/>
      <point x="137" y="339"/>
      <point x="135" y="312" type="curve"/>
      <point x="332" y="312" type="line"/>
      <point x="321" y="252" type="line"/>
    </contour>
  </outline>
</glyph>
<glyph name="trademark" format="1">
  <advance width="559"/>
  <unicode hex="2122"/>
  <outline>
    <contour>
      <point x="266" y="660" type="line"/>
      <point x="186" y="660" type="line"/>
      <point x="124" y="304" type="line"/>
      <point x="80" y="304" type="line"/>
      <point x="142" y="660" type="line"/>
      <point x="63" y="660" type="line"/>
      <point x="70" y="700" type="line"/>
      <point x="273" y="700" type="line"/>
    </contour>
    <contour>
      <point x="498" y="304" type="line"/>
      <point x="457" y="304" type="line"/>
      <point x="498" y="537" type="line" smooth="yes"/>
      <point x="500" y="547"/>
      <point x="505" y="575"/>
      <point x="507" y="585" type="curve"/>
      <point x="502" y="572"/>
      <point x="490" y="547"/>
      <point x="480" y="527" type="curve" smooth="yes"/>
      <point x="369" y="294" type="line"/>
      <point x="340" y="527" type="line" smooth="yes"/>
      <point x="338" y="546"/>
      <point x="335" y="566"/>
      <point x="334" y="580" type="curve"/>
      <point x="333" y="572"/>
      <point x="329" y="547"/>
      <point x="327" y="537" type="curve" smooth="yes"/>
      <point x="286" y="304" type="line"/>
      <point x="245" y="304" type="line"/>
      <point x="314" y="700" type="line"/>
      <point x="361" y="700" type="line"/>
      <point x="387" y="493" type="line" smooth="yes"/>
      <point x="390" y="466"/>
      <point x="391" y="434"/>
      <point x="392" y="415" type="curve"/>
      <point x="400" y="435"/>
      <point x="411" y="461"/>
      <point x="423" y="488" type="curve" smooth="yes"/>
      <point x="520" y="700" type="line"/>
      <point x="567" y="700" type="line"/>
    </contour>
  </outline>
</glyph>
<glyph name="arrowright" format="1">
  <advance width="460"/>
  <unicode hex="2192"/>
  <outline>
    <contour>
      <point x="446" y="345" type="line"/>
      <point x="296" y="240" type="line" smooth="yes"/>
      <point x="293" y="238"/>
      <point x="291" y="237"/>
      <point x="288" y="238" type="curve"/>
      <point x="285" y="240"/>
      <point x="284" y="243"/>
      <point x="286" y="247" type="curve"/>
      <point x="312" y="315" type="line"/>
      <point x="36" y="315" type="line"/>
      <point x="36" y="375" type="line"/>
      <point x="312" y="375" type="line"/>
      <point x="286" y="443" type="line"/>
      <point x="284" y="447"/>
      <point x="285" y="450"/>
      <point x="288" y="452" type="curve"/>
      <point x="291" y="453"/>
      <point x="293" y="452"/>
      <point x="296" y="450" type="curve" smooth="yes"/>
    </contour>
  </outline>
</glyph>
<glyph name="arrowdown" format="1">
  <advance width="315"/>
  <unicode hex="2193"/>
  <outline>
    <contour>
      <point x="264" y="143" type="curve"/>
      <point x="266" y="140"/>
      <point x="265" y="138"/>
      <point x="262" y="134" type="curve" smooth="yes"/>
      <point x="158" y="-15" type="line"/>
      <point x="53" y="134" type="line"/>
      <point x="51" y="138"/>
      <point x="50" y="140"/>
      <point x="51" y="143" type="curve"/>
      <point x="52" y="145"/>
      <point x="55" y="147"/>
      <point x="59" y="145" type="curve"/>
      <point x="126" y="119" type="line"/>
      <point x="126" y="700" type="line"/>
      <point x="189" y="700" type="line"/>
      <point x="189" y="119" type="line"/>
      <point x="256" y="145" type="line"/>
      <point x="260" y="147"/>
      <point x="263" y="145"/>
    </contour>
  </outline>
</glyph>
<glyph name="arrowboth" format="1">
  <advance width="596"/>
  <unicode hex="2194"/>
  <outline>
    <contour>
      <point x="583" y="345" type="line"/>
      <point x="433" y="240" type="line" smooth="yes"/>
      <point x="430" y="238"/>
      <point x="428" y="237"/>
      <point x="425" y="238" type="curve"/>
      <point x="422" y="240"/>
      <point x="421" y="243"/>
      <point x="423" y="247" type="curve"/>
      <point x="449" y="315" type="line"/>
      <point x="147" y="315" type="line"/>
      <point x="173" y="247" type="line"/>
      <point x="175" y="243"/>
      <point x="174" y="240"/>
      <point x="172" y="238" type="curve"/>
      <point x="169" y="237"/>
      <point x="167" y="238"/>
      <point x="163" y="240" type="curve"/>
      <point x="14" y="345" type="line"/>
      <point x="163" y="450" type="line"/>
      <point x="167" y="452"/>
      <point x="169" y="453"/>
      <point x="172" y="452" type="curve"/>
      <point x="174" y="450"/>
      <point x="175" y="447"/>
      <point x="173" y="443" type="curve"/>
      <point x="147" y="375" type="line"/>
      <point x="449" y="375" type="line"/>
      <point x="423" y="443" type="line"/>
      <point x="421" y="447"/>
      <point x="422" y="450"/>
      <point x="425" y="452" type="curve"/>
      <point x="428" y="453"/>
      <point x="430" y="452"/>
      <point x="433" y="450" type="curve" smooth="yes"/>
    </contour>
  </outline>
</glyph>
<glyph name="radical" format="1">
  <advance width="437"/>
  <unicode hex="221A"/>
  <outline>
    <contour>
      <point x="488" y="700" type="line"/>
      <point x="171" y="0" type="line"/>
      <point x="106" y="0" type="line"/>
      <point x="36" y="340" type="line"/>
      <point x="110" y="340" type="line"/>
      <point x="128" y="228" type="line" smooth="yes"/>
      <point x="134" y="189"/>
      <point x="146" y="114"/>
      <point x="149" y="74" type="curve"/>
      <point x="163" y="115"/>
      <point x="198" y="193"/>
      <point x="216" y="233" type="curve" smooth="yes"/>
      <point x="420" y="700" type="line"/>
    </contour>
  </outline>
</glyph>
<glyph name="apple" format="1">
  <advance width="580"/>
  <unicode hex="F8FF"/>
  <outline>
    <contour>
      <point x="567" y="345" type="line"/>
      <point x="421" y="239" type="line"/>
      <point x="418" y="236"/>
      <point x="416" y="235"/>
      <point x="413" y="236" type="curve"/>
      <point x="411" y="237"/>
      <point x="410" y="241"/>
      <point x="412" y="245" type="curve"/>
      <point x="438" y="315" type="line"/>
      <point x="321" y="315" type="line"/>
      <point x="321" y="113" type="line"/>
      <point x="391" y="140" type="line"/>
      <point x="395" y="142"/>
      <point x="398" y="141"/>
      <point x="399" y="138" type="curve" smooth="yes"/>
      <point x="400" y="135"/>
      <point x="399" y="134"/>
      <point x="397" y="131" type="curve" smooth="yes"/>
      <point x="291" y="-15" type="line"/>
      <point x="185" y="131" type="line"/>
      <point x="182" y="134"/>
      <point x="181" y="135"/>
      <point x="182" y="138" type="curve" smooth="yes"/>
      <point x="183" y="141"/>
      <point x="187" y="142"/>
      <point x="191" y="140" type="curve"/>
      <point x="261" y="113" type="line"/>
      <point x="261" y="315" type="line"/>
      <point x="142" y="315" type="line"/>
      <point x="168" y="245" type="line"/>
      <point x="170" y="241"/>
      <point x="169" y="237"/>
      <point x="167" y="236" type="curve"/>
      <point x="164" y="235"/>
      <point x="163" y="236"/>
      <point x="159" y="239" type="curve" smooth="yes"/>
      <point x="14" y="345" type="line"/>
      <point x="159" y="451" type="line" smooth="yes"/>
      <point x="163" y="454"/>
      <point x="164" y="455"/>
      <point x="167" y="454" type="curve"/>
      <point x="169" y="453"/>
      <point x="170" y="449"/>
      <point x="168" y="445" type="curve"/>
      <point x="142" y="375" type="line"/>
      <point x="261" y="375" type="line"/>
      <point x="261" y="587" type="line"/>
      <point x="191" y="560" type="line"/>
      <point x="187" y="558"/>
      <point x="183" y="559"/>
      <point x="182" y="562" type="curve" smooth="yes"/>
      <point x="181" y="565"/>
      <point x="182" y="566"/>
      <point x="185" y="569" type="curve"/>
      <point x="291" y="715" type="line"/>
      <point x="397" y="569" type="line" smooth="yes"/>
      <point x="399" y="566"/>
      <point x="400" y="565"/>
      <point x="399" y="562" type="curve" smooth="yes"/>
      <point x="398" y="559"/>
      <point x="395" y="558"/>
      <point x="391" y="560" type="curve"/>
      <point x="321" y="587" type="line"/>
      <point x="321" y="375" type="line"/>
      <point x="438" y="375" type="line"/>
      <point x="412" y="445" type="line"/>
      <point x="410" y="449"/>
      <point x="411" y="453"/>
      <point x="413" y="454" type="curve"/>
      <point x="416" y="455"/>
      <point x="418" y="454"/>
      <point x="421" y="451" type="curve"/>
    </contour>
  </outline>
</glyph>
<glyph name="fi" format="1">
  <advance width="476"/>
  <unicode hex="FB01"/>
  <outline>
    <contour>
      <point x="468" y="674" type="curve" smooth="yes"/>
      <point x="468" y="647"/>
      <point x="447" y="624"/>
      <point x="422" y="624" type="curve" smooth="yes"/>
      <point x="395" y="624"/>
      <point x="373" y="647"/>
      <point x="373" y="674" type="curve" smooth="yes"/>
      <point x="373" y="701"/>
      <point x="395" y="724"/>
      <point x="422" y="724" type="curve" smooth="yes"/>
      <point x="447" y="724"/>
      <point x="468" y="701"/>
    </contour>
    <contour>
      <point x="310" y="653" type="line"/>
      <point x="297" y="659"/>
      <point x="281" y="663"/>
      <point x="262" y="663" type="curve" smooth="yes"/>
      <point x="235" y="663"/>
      <point x="214" y="652"/>
      <point x="207" y="611" type="curve" smooth="yes"/>
      <point x="192" y="525" type="line"/>
      <point x="275" y="525" type="line"/>
      <point x="264" y="467" type="line"/>
      <point x="182" y="467" type="line"/>
      <point x="100" y="0" type="line"/>
      <point x="32" y="0" type="line"/>
      <point x="114" y="467" type="line"/>
      <point x="56" y="467" type="line"/>
      <point x="67" y="525" type="line"/>
      <point x="125" y="525" type="line"/>
      <point x="139" y="605" type="line" smooth="yes"/>
      <point x="154" y="691"/>
      <point x="203" y="726"/>
      <point x="266" y="726" type="curve" smooth="yes"/>
      <point x="292" y="726"/>
      <point x="307" y="723"/>
      <point x="322" y="718" type="curve"/>
    </contour>
    <contour>
      <point x="343" y="0" type="line"/>
      <point x="275" y="0" type="line"/>
      <point x="368" y="525" type="line"/>
      <point x="436" y="525" type="line"/>
    </contour>
  </outline>
</glyph>
<glyph name="bullet" format="1">
  <advance width="324"/>
  <outline>
    <contour>
      <point x="249" y="366" type="curve" smooth="yes"/>
      <point x="249" y="318"/>
      <point x="210" y="279"/>
      <point x="162" y="279" type="curve" smooth="yes"/>
      <point x="114" y="279"/>
      <point x="75" y="318"/>
      <point x="75" y="366" type="curve" smooth="yes"/>
      <point x="75" y="414"/>
      <point x="114" y="455"/>
      <point x="162" y="455" type="curve" smooth="yes"/>
      <point x="210" y="455"/>
      <point x="249" y="414"/>
    </contour>
  </outline>
</glyph>
<glyph name="macron" format="1">
  <advance width="395"/>
  <outline>
    <contour>
      <point x="372" y="618" type="line"/>
      <point x="126" y="618" type="line"/>
      <point x="136" y="677" type="line"/>
      <point x="382" y="677" type="line"/>
    </contour>
  </outline>
</glyph>
<glyph name="registered" format="1">
  <advance width="617"/>
  <outline>
    <contour>
      <point x="573" y="350" type="curve" smooth="yes"/>
      <point x="573" y="135"/>
      <point x="469" y="-11"/>
      <point x="308" y="-11" type="curve" smooth="yes"/>
      <point x="148" y="-11"/>
      <point x="45" y="135"/>
      <point x="45" y="350" type="curve" smooth="yes"/>
      <point x="45" y="565"/>
      <point x="148" y="711"/>
      <point x="308" y="711" type="curve" smooth="yes"/>
      <point x="469" y="711"/>
      <point x="573" y="565"/>
    </contour>
    <contour>
      <point x="525" y="350" type="curve" smooth="yes"/>
      <point x="525" y="537"/>
      <point x="444" y="666"/>
      <point x="308" y="666" type="curve" smooth="yes"/>
      <point x="172" y="666"/>
      <point x="92" y="537"/>
      <point x="92" y="350" type="curve" smooth="yes"/>
      <point x="92" y="163"/>
      <point x="172" y="34"/>
      <point x="308" y="34" type="curve" smooth="yes"/>
      <point x="444" y="34"/>
      <point x="525" y="163"/>
    </contour>
    <contour>
      <point x="424" y="161" type="line"/>
      <point x="370" y="161" type="line"/>
      <point x="311" y="336" type="line"/>
      <point x="307" y="335"/>
      <point x="270" y="335"/>
      <point x="264" y="335" type="curve"/>
      <point x="264" y="161" type="line"/>
      <point x="215" y="161" type="line"/>
      <point x="215" y="555" type="line"/>
      <point x="315" y="555" type="line" smooth="yes"/>
      <point x="375" y="555"/>
      <point x="421" y="522"/>
      <point x="421" y="448" type="curve" smooth="yes"/>
      <point x="421" y="397"/>
      <point x="397" y="363"/>
      <point x="361" y="347" type="curve"/>
    </contour>
    <contour>
      <point x="372" y="447" type="curve" smooth="yes"/>
      <point x="372" y="490"/>
      <point x="351" y="511"/>
      <point x="313" y="511" type="curve" smooth="yes"/>
      <point x="264" y="511" type="line"/>
      <point x="264" y="380" type="line"/>
      <point x="311" y="380" type="line" smooth="yes"/>
      <point x="351" y="380"/>
      <point x="372" y="404"/>
    </contour>
  </outline>
</glyph>
